<?xml version="1.0" encoding="UTF-8" standalone="no"?>
<!DOCTYPE svg PUBLIC "-//W3C//DTD SVG 1.1//EN" "http://www.w3.org/Graphics/SVG/1.1/DTD/svg11.dtd">
<svg width="100%" height="100%" viewBox="0 0 2048 2048" version="1.1" xmlns="http://www.w3.org/2000/svg" xmlns:xlink="http://www.w3.org/1999/xlink" xml:space="preserve" xmlns:serif="http://www.serif.com/" style="fill-rule:evenodd;clip-rule:evenodd;stroke-linecap:round;stroke-linejoin:round;stroke-miterlimit:1.5;">
    <g id="レイヤー4">
    </g>
    <g id="レイヤー5">
    </g>
    <g id="レイヤー6">
        <path d="M206.095,57.565C206.095,57.565 205.569,2.714 156.311,2.556C129.348,2.47 74.97,2.503 48.063,1.955C3.74,1.052 2.652,55.129 2.652,55.129L2.294,1585.33C2.294,1585.33 3.525,1638.92 46.934,1638.65C74.973,1638.47 133.414,1638.17 161.994,1638.24C205.121,1638.34 205.747,1582.81 205.747,1582.81L207.873,829.965C207.873,829.965 412.678,617.627 613.01,616.2C811.198,614.789 925.378,819.235 924.165,1027.61C921.835,1427.76 646.418,1540.68 646.418,1540.68C646.418,1540.68 616.444,1543.71 615.625,1594.66C614.928,1638.04 643.847,1639.79 643.847,1639.79C643.847,1639.79 756.292,1640.24 783.098,1639.76C819.329,1639.11 862.986,1609.01 862.986,1609.01C862.986,1609.01 1127.03,1439.31 1129.7,1026.87C1132.32,621.534 826.315,506.002 826.315,506.002C826.315,506.002 1023.52,411.631 1023.19,206.105C1023.01,91.108 1026.8,50.513 1026.8,50.513C1026.8,50.513 1025.38,2.837 979.475,2.12C944.003,1.566 893.609,1.128 868.769,1.593C820.672,2.494 818.849,51.8 818.849,51.8C818.849,51.8 818.21,154.111 818.063,205.939C817.753,315.65 726.782,408.97 612.611,410.524C411.519,413.262 207.848,610.616 207.848,610.616L206.095,57.565Z" style="stroke:black;stroke-width:1px;"/>
    </g>
</svg>
