<?xml version="1.0" encoding="UTF-8" standalone="no"?>
<!DOCTYPE svg PUBLIC "-//W3C//DTD SVG 1.1//EN" "http://www.w3.org/Graphics/SVG/1.1/DTD/svg11.dtd">
<svg width="100%" height="100%" viewBox="0 0 2048 2048" version="1.1" xmlns="http://www.w3.org/2000/svg" xmlns:xlink="http://www.w3.org/1999/xlink" xml:space="preserve" xmlns:serif="http://www.serif.com/" style="fill-rule:evenodd;clip-rule:evenodd;stroke-linecap:round;stroke-linejoin:round;stroke-miterlimit:1.5;">
    <g id="レイヤー6">
        <path d="M-0.044,68.438L1.055,1576.63C1.055,1576.63 2.74,1637.69 53.418,1638.61C80.565,1639.1 123.07,1640.72 151.087,1640.11C206.633,1638.9 209.827,1576.9 209.827,1576.9L205.115,274.255C205.115,274.255 201.059,210.444 257.253,209.849C409.731,208.237 613.36,205.579 613.36,205.579C613.36,205.579 931.59,203.08 928.18,515.596C924.817,823.802 668.321,816.179 668.321,816.179C668.321,816.179 615.456,820.554 615.266,874.603C614.75,1020.82 614.681,1583.02 614.681,1583.02C614.681,1583.02 614.459,1637.57 661.15,1638.4C726.148,1639.57 1086.63,1637.08 1086.63,1637.08C1086.63,1637.08 1128,1639.13 1128.36,1582.65C1128.52,1556.08 1130.64,1510.52 1130.01,1482.69C1128.93,1435.26 1078.43,1433.45 1078.43,1433.45C1078.43,1433.45 911.69,1428.24 867.534,1428.25C818.473,1428.25 821.754,1367.83 821.754,1367.83C821.754,1367.83 822.81,1120.87 823.472,1026.01C823.705,992.604 844.531,990.81 862.356,983.997C884.663,975.47 1125.82,925.109 1125.26,527.281C1124.53,3.125 614.635,0.335 614.635,0.335C614.635,0.335 197.888,0.318 70.332,0.943C2.97,1.273 -0.044,68.438 -0.044,68.438Z" style="stroke:black;stroke-width:1px;"/>
    </g>
</svg>
