<?xml version="1.0" encoding="UTF-8" standalone="no"?>
<!DOCTYPE svg PUBLIC "-//W3C//DTD SVG 1.1//EN" "http://www.w3.org/Graphics/SVG/1.1/DTD/svg11.dtd">
<svg width="100%" height="100%" viewBox="0 0 2048 2048" version="1.1" xmlns="http://www.w3.org/2000/svg" xmlns:xlink="http://www.w3.org/1999/xlink" xml:space="preserve" xmlns:serif="http://www.serif.com/" style="fill-rule:evenodd;clip-rule:evenodd;stroke-linecap:round;stroke-linejoin:round;stroke-miterlimit:1.5;">
    <g transform="matrix(1,0,0,1.07438,0,-121.755)">
        <g id="レイヤー6">
            <path d="M667.888,108.786C667.888,108.786 615.098,113.258 617.53,168.627C618.634,193.778 616.885,228.266 616.79,252.029C616.595,300.8 669.299,302.82 669.299,302.82L1589.74,308.324L1233.51,634.448C1233.51,634.448 1228.56,525.893 1024.73,526.687C910.837,527.131 660.823,658.779 410.97,876.753C218.735,1044.46 1.741,1238.84 -1.149,1438.4C-2.521,1533.17 100.625,1631.77 200.793,1635.7C314.213,1640.15 479.01,1509.61 615.848,1397.55C820.094,1230.28 1021.45,1064.03 1021.45,1064.03C1021.45,1064.03 1023.29,1261.68 1024,1446.24C1024.74,1639 1232.9,1638.35 1232.9,1638.35C1232.9,1638.35 1552.09,1640.48 1593.18,1639.94C1638.06,1639.35 1639.59,1584.85 1639.59,1584.85L1641.46,1491.68C1641.46,1491.68 1639.12,1447.64 1595.49,1446.88C1548.37,1446.06 1325.72,1447.4 1325.72,1447.4C1325.72,1447.4 1227.23,1444.36 1228.74,1350.62C1233.35,1066.55 1232.71,870.364 1232.71,870.364L1737.85,402.565C1737.85,402.565 1843.23,304.103 1845.78,243.116C1846.59,223.573 1844.76,182.453 1844.67,159.174C1844.49,115.399 1789.31,114.32 1789.31,114.32L667.888,108.786ZM1009.04,817.821C1009.04,817.821 779.203,1012.73 606.528,1158.54C503.173,1245.81 395.01,1336.72 313.033,1337.25C256.424,1337.61 363.482,1180.79 524.055,1019.89C656.11,887.56 854.326,713.62 962.982,711.765C1024.16,710.72 1009.04,817.821 1009.04,817.821Z" style="stroke:black;stroke-width:0.96px;"/>
        </g>
    </g>
</svg>
