<?xml version="1.0" encoding="UTF-8" standalone="no"?>
<!DOCTYPE svg PUBLIC "-//W3C//DTD SVG 1.1//EN" "http://www.w3.org/Graphics/SVG/1.1/DTD/svg11.dtd">
<svg width="100%" height="100%" viewBox="0 0 2048 2048" version="1.1" xmlns="http://www.w3.org/2000/svg" xmlns:xlink="http://www.w3.org/1999/xlink" xml:space="preserve" xmlns:serif="http://www.serif.com/" style="fill-rule:evenodd;clip-rule:evenodd;stroke-linecap:round;stroke-linejoin:round;stroke-miterlimit:1.5;">
    <g id="レイヤー6">
        <path d="M1230.89,411.715C1230.89,411.715 1230.71,1.548 612.969,-1.962C4.099,-5.421 2.86,402.005 2.86,402.005L1.931,1584.49C1.931,1584.49 3.818,1638.06 50.991,1638.42C77.068,1638.62 130.066,1639.92 158.489,1639.5C206.829,1638.77 206.067,1582.71 206.067,1582.71L209.492,1179.77C209.492,1179.77 206.537,930.9 617.614,924.571C1023.14,918.327 1023.18,1173.45 1023.16,1175.41C1020.51,1424.74 613.251,1432.64 613.251,1432.64C613.251,1432.64 580.209,1434.32 579.081,1475.61C578.321,1503.4 579.267,1567.11 579.694,1596.08C580.334,1639.5 614.221,1638.42 614.221,1638.42C614.221,1638.42 1231.61,1637.51 1229.98,1175.69C1229.98,1174.41 1230.35,718.199 611.766,718.277C300.454,718.316 206.386,857.471 206.386,857.471L205.124,409.202C205.124,409.202 204.467,205.01 613.855,203.359C1020.15,201.719 1021.41,411.251 1021.41,411.251C1021.41,411.251 1026.78,459.546 1060.83,460.012C1089.85,460.408 1158.3,461.479 1187.21,461.396C1230.05,461.273 1230.89,411.715 1230.89,411.715Z" style="stroke:black;stroke-width:1px;"/>
    </g>
</svg>
