<?xml version="1.0" encoding="UTF-8" standalone="no"?>
<!DOCTYPE svg PUBLIC "-//W3C//DTD SVG 1.1//EN" "http://www.w3.org/Graphics/SVG/1.1/DTD/svg11.dtd">
<svg width="100%" height="100%" viewBox="0 0 2048 2048" version="1.1" xmlns="http://www.w3.org/2000/svg" xmlns:xlink="http://www.w3.org/1999/xlink" xml:space="preserve" xmlns:serif="http://www.serif.com/" style="fill-rule:evenodd;clip-rule:evenodd;stroke-linejoin:round;stroke-miterlimit:2;">
    <g id="レイヤー4">
    </g>
    <g id="レイヤー5">
    </g>
    <g transform="matrix(0.932115,0,0,1.00381,-424.474,138.728)">
        <g id="レイヤー6">
            <path d="M560.298,-137.805C596.313,-138.187 643.751,-137.41 676.556,-136.703C714.754,-135.881 747.754,-93.406 747.754,-93.406L1112.65,486.691L1473.57,-90.364C1473.57,-90.364 1502.91,-136.101 1556.35,-136.809C1590.33,-137.259 1623.65,-138.143 1666.13,-138.25C1774.25,-138.522 1718.09,-53.471 1718.09,-53.471L1241.58,670.55L1741.77,1441.87C1741.77,1441.87 1775.78,1496.11 1680.82,1494.92C1647.91,1494.51 1599.53,1496.06 1556.2,1494.46C1520.46,1493.15 1472.26,1427.2 1472.26,1427.2L1112.65,856.652L736.831,1449.62C736.831,1449.62 705.643,1495.35 676.127,1495.73C642.188,1496.15 589.733,1496.99 557.662,1496.51C457.95,1495.01 487.094,1442.86 487.094,1442.86L983.727,670.55L498.828,-77.895C498.828,-77.895 455.369,-136.69 560.298,-137.805Z" style="fill-rule:nonzero;"/>
        </g>
    </g>
</svg>
