<?xml version="1.0" encoding="UTF-8" standalone="no"?>
<!DOCTYPE svg PUBLIC "-//W3C//DTD SVG 1.1//EN" "http://www.w3.org/Graphics/SVG/1.1/DTD/svg11.dtd">
<svg width="100%" height="100%" viewBox="0 0 2048 2048" version="1.1" xmlns="http://www.w3.org/2000/svg" xmlns:xlink="http://www.w3.org/1999/xlink" xml:space="preserve" xmlns:serif="http://www.serif.com/" style="fill-rule:evenodd;clip-rule:evenodd;stroke-linecap:round;stroke-linejoin:round;stroke-miterlimit:1.5;">
    <g id="レイヤー6">
        <path d="M1436.44,410.229C1436.44,410.229 1433.16,-3.714 734.703,-0.713C112.353,1.961 1.77,408.948 -1.525,822.368C-6.389,1432.66 306.706,1639.89 712.502,1640.41C815.409,1640.54 817.695,1436.77 817.695,1436.77L821.009,923.422C821.009,923.422 815.187,820.545 919.904,821.073C1132.11,822.144 1235.94,926.621 1231.33,1125.94C1224.26,1431.15 1025.94,1430.61 1025.94,1430.61C1025.94,1430.61 979.967,1434.16 980.224,1477.56C980.394,1506.13 979.124,1566.54 980.657,1597.55C982.748,1639.86 1023.75,1638.2 1023.75,1638.2C1023.75,1638.2 1434.73,1633.95 1436.85,1122.65C1438.1,820.259 1337.02,614.682 816.953,613.857C712.976,613.692 616.731,755.47 617.672,825.799C619.699,977.277 615.058,1425.09 615.058,1425.09C615.058,1425.09 201.742,1424.54 200.201,819.688C199.174,416.724 415.947,202.029 729.839,201.527C1229.05,200.729 1230,412.035 1230,412.035C1230,412.035 1230.31,461.362 1276.14,461.843C1304.62,462.142 1362.47,462.631 1390.32,462.222C1437.02,461.537 1436.44,410.229 1436.44,410.229Z" style="stroke:black;stroke-width:1px;"/>
    </g>
</svg>
