<?xml version="1.0" encoding="UTF-8" standalone="no"?>
<!DOCTYPE svg PUBLIC "-//W3C//DTD SVG 1.1//EN" "http://www.w3.org/Graphics/SVG/1.1/DTD/svg11.dtd">
<svg width="100%" height="100%" viewBox="0 0 2048 2048" version="1.1" xmlns="http://www.w3.org/2000/svg" xmlns:xlink="http://www.w3.org/1999/xlink" xml:space="preserve" xmlns:serif="http://www.serif.com/" style="fill-rule:evenodd;clip-rule:evenodd;stroke-linejoin:round;stroke-miterlimit:2;">
    <g id="レイヤー5">
    </g>
    <g id="レイヤー6">
        <path d="M1.468,60.757L-0.179,1581.58C-0.179,1581.58 -0.471,1638.11 47.665,1639.03C76.247,1639.58 132.896,1640.27 161.172,1640.12C206.864,1639.87 204.886,1575.27 204.886,1575.27L207.836,1174.31C207.836,1174.31 654.373,1590.98 1028.54,1231.42C1346.4,925.965 867.678,206.83 867.678,206.83L1168.59,205.89C1168.59,205.89 1228.66,203.718 1229.11,150.756C1229.34,123.71 1230.41,75.713 1230.44,51.99C1230.51,3.291 1168.07,0.704 1168.07,0.704L656.99,-0.483C656.99,-0.483 614.666,1.675 613.914,47.73C613.56,69.418 612.535,125.009 613.328,161.179C614.251,203.277 659.705,236.414 685.464,272.275C781.391,405.817 1075.44,888.322 867.061,1102.91C633.297,1343.64 209.564,980.048 206.449,720.715C205.207,617.301 206.369,63.969 206.369,63.969C206.369,63.969 205.993,2.107 149.777,1.593C122.458,1.343 79.806,0.596 54.99,1.092C2.827,2.134 1.468,60.757 1.468,60.757Z"/>
    </g>
</svg>
