<?xml version="1.0" encoding="UTF-8" standalone="no"?>
<!DOCTYPE svg PUBLIC "-//W3C//DTD SVG 1.1//EN" "http://www.w3.org/Graphics/SVG/1.1/DTD/svg11.dtd">
<svg width="100%" height="100%" viewBox="0 0 2048 2048" version="1.1" xmlns="http://www.w3.org/2000/svg" xmlns:xlink="http://www.w3.org/1999/xlink" xml:space="preserve" xmlns:serif="http://www.serif.com/" style="fill-rule:evenodd;clip-rule:evenodd;stroke-linecap:round;stroke-linejoin:round;stroke-miterlimit:1.5;">
    <g id="レイヤー6">
        <path d="M1436.01,513.532C1436.24,301.881 1229.63,-0.153 819.39,2.643C408.418,5.444 195.812,304.353 199.876,514.708C205.568,809.359 335.957,904.581 411.101,935.709C441.797,948.425 465.742,979.887 465.896,1020.67C467.441,1430.9 44.695,1433.66 44.695,1433.66C44.695,1433.66 1.345,1434.91 0.617,1479.67C0.155,1508.1 0.282,1569.99 1.495,1598.73C3.254,1640.42 47.414,1638.65 47.414,1638.65C47.414,1638.65 715.895,1641.17 718.199,881.537C718.304,846.796 689.575,827.546 649.772,817.64C613.829,808.695 411.846,727.008 411.838,515.363C411.832,329.034 617.565,207.682 815.244,203.838C1026.8,199.725 1229.16,329.014 1225.54,511.911C1221.72,704.336 1001.5,808.732 979.283,818.586C957.399,828.293 926.291,845.963 926.412,867.194C927.298,1023.37 930.408,1587.07 930.408,1587.07C930.408,1587.07 930.585,1637.91 975.202,1638.54C998.972,1638.87 1046.83,1641.58 1076.88,1640.64C1125.41,1639.12 1126.36,1582.76 1126.36,1582.76C1126.36,1582.76 1131.6,1023.9 1132.87,975.249C1133.42,954.331 1157.91,939.917 1176.29,929.911C1192.5,921.086 1435.68,820.187 1436.01,513.532Z" style="stroke:black;stroke-width:1px;"/>
    </g>
</svg>
