<?xml version="1.0" encoding="UTF-8" standalone="no"?>
<!DOCTYPE svg PUBLIC "-//W3C//DTD SVG 1.1//EN" "http://www.w3.org/Graphics/SVG/1.1/DTD/svg11.dtd">
<svg width="100%" height="100%" viewBox="0 0 2048 2048" version="1.1" xmlns="http://www.w3.org/2000/svg" xmlns:xlink="http://www.w3.org/1999/xlink" xml:space="preserve" xmlns:serif="http://www.serif.com/" style="fill-rule:evenodd;clip-rule:evenodd;stroke-linecap:round;stroke-linejoin:round;stroke-miterlimit:1.5;">
    <g id="レイヤー6">
        <path d="M0.804,58.109C0.804,58.109 1.923,616.608 1.03,1024.22C-0.304,1633.7 614.065,1638.55 614.065,1638.55L819.157,1639.8C819.157,1639.8 1433.14,1637.22 1434.83,1025.12C1435.4,819.501 1439.12,613.704 1436.52,409.074C1431.32,-0.523 1025.41,1.438 1025.41,1.438C1025.41,1.438 611.504,-0.726 614.174,410.249C616.818,817.051 613.638,1433.04 613.638,1433.04C613.638,1433.04 205.156,1424.09 205.932,1022.72C206.717,617.04 206.16,59.386 206.16,59.386C206.16,59.386 205.564,2.082 153.461,1.774C128.482,1.626 80.388,0.588 51.51,0.896C2.52,1.418 0.804,58.109 0.804,58.109ZM821.397,1433.92C821.397,1433.92 819.298,616.154 819.736,411.546C820.177,205.753 1023.23,206.677 1023.23,206.677C1023.23,206.677 1230.98,205.685 1230.75,411.144C1230.53,613.878 1230.49,822.757 1231.48,1022.92C1233.53,1436.36 821.397,1433.92 821.397,1433.92Z" style="stroke:black;stroke-width:1px;"/>
    </g>
</svg>
