<?xml version="1.0" encoding="UTF-8" standalone="no"?>
<!DOCTYPE svg PUBLIC "-//W3C//DTD SVG 1.1//EN" "http://www.w3.org/Graphics/SVG/1.1/DTD/svg11.dtd">
<svg width="100%" height="100%" viewBox="0 0 2048 2048" version="1.1" xmlns="http://www.w3.org/2000/svg" xmlns:xlink="http://www.w3.org/1999/xlink" xml:space="preserve" xmlns:serif="http://www.serif.com/" style="fill-rule:evenodd;clip-rule:evenodd;stroke-linecap:round;stroke-linejoin:round;stroke-miterlimit:1.5;">
    <g id="レイヤー6">
        <path d="M1231.7,360.16C1230.69,311.57 1184.58,290.268 1184.58,290.268C1184.58,290.268 1047.21,206.261 814.875,206.221C606.029,206.185 308.57,308.861 308.57,308.861L310.148,46.344C310.148,46.344 306.961,0.836 265.124,1.81C236.392,2.478 182.064,1.736 151.73,2.537C106.248,3.74 107.778,56.484 107.778,56.484C107.778,56.484 108.627,4.208 107.66,1226.21C107.532,1387.96 102.179,1530.03 51.739,1530.42C51.623,1530.42 1.942,1533.29 2.2,1585.27C2.455,1636.34 44.318,1638.52 44.318,1638.52L251.211,1637C251.211,1637 318.006,1638.57 317.289,1481.2C317.283,1479.92 416.251,1644.87 724.087,1640.2C1228.14,1632.55 1230.6,1181.86 1230.6,1181.86C1230.6,1181.86 1229.94,711.324 672.514,714.376C470.652,715.481 312.179,817.128 312.179,817.128L311.575,516.181C311.575,516.181 549.946,415.332 819.67,419.773C1025.04,423.155 1127.85,506.317 1185.76,507.84C1228.98,508.977 1232.35,457.633 1232.34,456.802C1231.68,406.24 1232.67,406.873 1231.7,360.16ZM308.108,1026.05C308.108,1026.05 508.588,916.132 665.043,915.91C1018.75,915.409 1026.73,1186.68 1026.73,1186.68C1026.73,1186.68 1039.99,1429.2 684.9,1431.89C376.342,1434.23 307.371,1229.95 307.371,1229.95L308.108,1026.05Z" style="stroke:black;stroke-width:1px;"/>
    </g>
</svg>
