<?xml version="1.0" encoding="UTF-8" standalone="no"?>
<!DOCTYPE svg PUBLIC "-//W3C//DTD SVG 1.1//EN" "http://www.w3.org/Graphics/SVG/1.1/DTD/svg11.dtd">
<svg width="100%" height="100%" viewBox="0 0 2048 2048" version="1.1" xmlns="http://www.w3.org/2000/svg" xmlns:xlink="http://www.w3.org/1999/xlink" xml:space="preserve" xmlns:serif="http://www.serif.com/" style="fill-rule:evenodd;clip-rule:evenodd;stroke-linecap:round;stroke-linejoin:round;stroke-miterlimit:1.5;">
    <g id="レイヤー6">
        <path d="M0.689,59.219L0.374,759.071C0.374,759.071 -0.222,820.183 46.621,819.678C75.475,819.367 130.63,819.82 160.504,820.295C204.841,820.999 206.329,759.82 206.329,759.82L210.383,460.237C210.383,460.237 411.679,201.078 715.878,204.396C717.479,204.413 1020.71,209.082 1021.57,407.762C1022.45,608.138 663.54,613.595 663.54,613.595C663.54,613.595 496.803,612.534 461.923,612.345C410.867,612.068 408.255,670.251 408.255,670.251C408.255,670.251 408.449,1029.54 407.647,1323.36C407.203,1485.92 225.288,1557.54 225.288,1557.54C225.288,1557.54 204.967,1566.14 205.265,1596.23C205.68,1638.11 225.522,1639.11 225.522,1639.11C225.522,1639.11 332.087,1637.6 373.476,1637.94C410.724,1638.26 444.033,1612.46 444.033,1612.46C444.033,1612.46 613.413,1463.03 613.425,1322.02C613.442,1115.14 615.902,946.268 616.708,874.816C617.308,821.629 667.394,820.923 667.394,820.923C667.394,820.923 1233.92,815.265 1230.73,412.062C1227.47,0.235 712.913,3.654 710.635,3.656C409.216,3.979 203.966,208.035 203.966,208.035L208.17,58.35C208.17,58.35 206.804,1.478 153.395,0.836C123.606,0.478 77.676,1.704 51.571,1.319C3.891,0.615 0.689,59.219 0.689,59.219Z" style="stroke:black;stroke-width:1px;"/>
    </g>
</svg>
