<?xml version="1.0" encoding="UTF-8" standalone="no"?>
<!DOCTYPE svg PUBLIC "-//W3C//DTD SVG 1.1//EN" "http://www.w3.org/Graphics/SVG/1.1/DTD/svg11.dtd">
<svg width="100%" height="100%" viewBox="0 0 2048 2048" version="1.1" xmlns="http://www.w3.org/2000/svg" xmlns:xlink="http://www.w3.org/1999/xlink" xml:space="preserve" xmlns:serif="http://www.serif.com/" style="fill-rule:evenodd;clip-rule:evenodd;stroke-linecap:round;stroke-linejoin:round;stroke-miterlimit:1.5;">
    <g id="レイヤー6">
        <path d="M0.174,54.11C0.174,54.11 -2.247,815.775 -2.113,1232.92C-2.048,1435.45 204.523,1640.17 510.201,1638.55C822.287,1636.91 1026.04,1436.49 1024.3,1273.98C1024.3,1273.78 1024.67,1229.26 977.014,1229.3C946.601,1229.33 894.149,1228.54 866.951,1228.73C819.145,1229.08 818.501,1276.06 818.501,1276.06C818.501,1276.06 821.432,1434.26 509.735,1433.9C205.933,1433.55 204.277,1167.13 204.277,1167.13L204.646,917.657L971.694,912.001C971.694,912.001 1025.5,912.514 1026.47,870.141C1027.05,844.504 1023.45,789.567 1023.75,762.611C1024.21,721.205 976.151,719.708 976.151,719.708L205.358,717.61L207.14,53.521C207.14,53.521 206.147,2.441 160.431,1.621C138.198,1.222 73.837,2.36 46.168,2.184C3.521,1.913 0.174,54.11 0.174,54.11Z" style="stroke:black;stroke-width:1px;"/>
    </g>
</svg>
