<?xml version="1.0" encoding="UTF-8" standalone="no"?>
<!DOCTYPE svg PUBLIC "-//W3C//DTD SVG 1.1//EN" "http://www.w3.org/Graphics/SVG/1.1/DTD/svg11.dtd">
<svg width="100%" height="100%" viewBox="0 0 2048 2048" version="1.1" xmlns="http://www.w3.org/2000/svg" xmlns:xlink="http://www.w3.org/1999/xlink" xml:space="preserve" xmlns:serif="http://www.serif.com/" style="fill-rule:evenodd;clip-rule:evenodd;stroke-linecap:round;stroke-linejoin:round;stroke-miterlimit:1.5;">
    <g id="レイヤー6">
        <path d="M1435.14,306.505C1435.14,305.019 1431.5,-0.51 1142.04,0.479C820.446,1.577 818.953,316.352 818.953,316.352C818.953,316.352 819.837,360.056 863.465,362.375C888.364,363.698 946.27,362.067 974.021,362.1C1027.2,362.164 1027.51,314.887 1027.51,314.887C1027.51,314.887 1023.28,203.46 1130.53,203.458C1237.25,203.457 1228.61,312.198 1228.59,315.969C1227.15,621.219 367.331,1098.27 367.331,1098.27C367.331,1098.27 411.732,406.119 411.394,62.942C411.334,2.072 353.356,1.784 353.356,1.784L256.98,1.147C256.98,1.147 200.926,3.238 202.088,61.699C204.866,201.484 192.356,615.829 155.857,1026.65C142.259,1179.7 129.851,1428.92 39.05,1547.93C26.793,1564 1.634,1580.07 1.295,1595.36C0.341,1638.43 37.585,1639.65 37.585,1639.65C37.585,1639.65 170.058,1640 204.534,1639.18C241.1,1638.31 264.904,1575.08 264.904,1575.08C264.904,1575.08 316.672,1432.56 411.108,1340.62C559.442,1196.21 1435.35,816.888 1435.14,306.505Z" style="stroke:black;stroke-width:1px;"/>
    </g>
</svg>
