<?xml version="1.0" encoding="UTF-8" standalone="no"?>
<!DOCTYPE svg PUBLIC "-//W3C//DTD SVG 1.1//EN" "http://www.w3.org/Graphics/SVG/1.1/DTD/svg11.dtd">
<svg width="100%" height="100%" viewBox="0 0 2048 2048" version="1.1" xmlns="http://www.w3.org/2000/svg" xmlns:xlink="http://www.w3.org/1999/xlink" xml:space="preserve" xmlns:serif="http://www.serif.com/" style="fill-rule:evenodd;clip-rule:evenodd;stroke-linecap:round;stroke-linejoin:round;stroke-miterlimit:1.5;">
    <g id="レイヤー6">
        <path d="M48.134,1638.93C75.022,1638.99 129.752,1640.58 157.524,1639.47C206.725,1637.51 206.509,1586.71 206.509,1586.71C206.509,1586.71 209.905,780.023 205.66,373.311C204.57,268.904 263.233,208.646 371.866,207.872C579.635,206.394 721.546,204.024 926.16,203.642C1022.19,203.463 1022.4,355.614 1022.4,355.614C1022.4,355.614 1026.28,409.251 1072.48,409.502C1107.08,409.691 1157.5,411.109 1185.12,409.948C1229.05,408.104 1230.49,354.832 1230.49,354.832C1230.49,354.832 1229.57,0.497 985.629,1.043C800.4,1.458 453.605,-2.55 249.444,-1.208C152.822,-0.573 -4.188,160.549 -3.915,257.173C-2.935,604.257 2.376,1595.25 2.376,1595.25C2.376,1595.25 3.666,1638.83 48.134,1638.93Z" style="stroke:black;stroke-width:1px;"/>
    </g>
</svg>
