<?xml version="1.0" encoding="UTF-8" standalone="no"?>
<!DOCTYPE svg PUBLIC "-//W3C//DTD SVG 1.1//EN" "http://www.w3.org/Graphics/SVG/1.1/DTD/svg11.dtd">
<svg width="100%" height="100%" viewBox="0 0 2048 2048" version="1.1" xmlns="http://www.w3.org/2000/svg" xmlns:xlink="http://www.w3.org/1999/xlink" xml:space="preserve" xmlns:serif="http://www.serif.com/" style="fill-rule:evenodd;clip-rule:evenodd;stroke-linecap:round;stroke-linejoin:round;stroke-miterlimit:1.5;">
    <g id="レイヤー6">
        <path d="M1.624,62.401L2.074,1593.03C2.074,1593.03 2.002,1639.01 45.694,1638.71C72.529,1638.53 137.962,1639.79 159.174,1639.44C184.123,1639.02 209.442,1623.09 209.442,1623.09C209.442,1623.09 1437.96,966.99 1435.58,415.842C1435.56,412.278 1433.86,2.687 1024.58,2.031C614.401,1.373 614.553,363.136 614.553,363.136C614.553,363.136 615.818,409.077 659.157,409.85C687.38,410.353 747.875,408.991 776.07,409.243C821.312,409.649 820.145,363.565 820.145,363.565C820.145,363.565 818.783,202.61 1024.36,204.628C1229.02,206.637 1229.58,408.676 1229.59,412.657C1230.28,865.809 203.036,1437.81 203.036,1437.81L205.683,64.869C205.683,64.869 206.122,1.672 146.27,1.578C119.562,1.536 82.666,1.927 58.232,2.122C2.522,2.566 1.624,62.401 1.624,62.401Z" style="stroke:black;stroke-width:1px;"/>
    </g>
</svg>
