<?xml version="1.0" encoding="UTF-8" standalone="no"?>
<!DOCTYPE svg PUBLIC "-//W3C//DTD SVG 1.1//EN" "http://www.w3.org/Graphics/SVG/1.1/DTD/svg11.dtd">
<svg width="100%" height="100%" viewBox="0 0 2048 2048" version="1.1" xmlns="http://www.w3.org/2000/svg" xmlns:xlink="http://www.w3.org/1999/xlink" xml:space="preserve" xmlns:serif="http://www.serif.com/" style="fill-rule:evenodd;clip-rule:evenodd;stroke-linecap:round;stroke-linejoin:round;stroke-miterlimit:1.5;">
    <g id="レイヤー4">
    </g>
    <g id="レイヤー6">
        <path d="M881.849,1639.42C1021.21,1639.73 1228.85,1430.37 1229.49,1268.51C1230.48,1019.87 1231.95,409.901 1230.44,100.391C1229.97,2.75 1124.29,1.573 1124.29,1.573L822.449,0.875C822.449,0.875 396.44,-29.18 127.011,304.052C43.383,407.483 2.183,506.268 2.668,826.336C2.882,967.382 14.207,1272.95 202.983,1434.03C467.605,1659.82 820.578,1638.95 820.578,1638.95C820.578,1638.95 823.153,1639.29 881.849,1639.42ZM917.91,210.68C917.91,210.68 1020.95,209.308 1021.96,310.943C1025.01,618.433 1024.92,1067.09 1024.87,1225.1C1024.84,1321.94 917.543,1431.75 820.847,1431.92C817.905,1431.93 615.459,1451.42 467.321,1358.1C253.277,1223.24 204.013,1027.98 205.04,818.676C206.273,567.559 227.037,401.398 436.16,283.274C590.144,196.295 917.91,210.68 917.91,210.68Z" style="stroke:black;stroke-width:1px;"/>
    </g>
</svg>
