<?xml version="1.0" encoding="UTF-8" standalone="no"?>
<!DOCTYPE svg PUBLIC "-//W3C//DTD SVG 1.1//EN" "http://www.w3.org/Graphics/SVG/1.1/DTD/svg11.dtd">
<svg width="100%" height="100%" viewBox="0 0 2048 2048" version="1.1" xmlns="http://www.w3.org/2000/svg" xmlns:xlink="http://www.w3.org/1999/xlink" xml:space="preserve" xmlns:serif="http://www.serif.com/" style="fill-rule:evenodd;clip-rule:evenodd;stroke-linecap:round;stroke-linejoin:round;stroke-miterlimit:1.5;">
    <g id="レイヤー6">
        <path d="M-2.05,207.103L1.102,1442.16C1.102,1442.16 5.463,1638.18 204.765,1639.76C413.743,1641.42 564.995,1640.99 564.995,1640.99C564.995,1640.99 616.388,1637.31 615.85,1588.48C615.578,1563.81 616.904,1511.11 616.7,1485.51C616.293,1434.36 563.778,1432.79 563.778,1432.79L412.2,1430.36C412.2,1430.36 207.452,1427.2 204.691,1235.39C201.748,1030.96 214.365,209.875 214.365,209.875L776.146,1523.92C776.146,1523.92 821.079,1639.12 910.705,1640.58C964.64,1641.45 1027.14,1640.44 1027.14,1640.44C1027.14,1640.44 1088.54,1635.34 1088.23,1588.56C1088.05,1561.39 1085.61,1509.45 1085.34,1481.12C1084.89,1434.28 1027.69,1433.72 1027.42,1433.71C959.146,1432.17 909.881,1353.18 854.884,1223.84C680.215,813.079 452.203,273.468 452.203,273.468C452.203,273.468 583.509,141.995 651.35,304.949C747.527,535.966 1184.64,1544.1 1184.64,1544.1C1184.64,1544.1 1227.42,1637.9 1333.6,1638.6C1434.49,1639.27 1437.11,1638.12 1437.11,1638.12C1437.11,1638.12 1496.24,1637.65 1496.75,1583.74C1497,1557.31 1495.49,1486.68 1495.49,1486.68C1495.49,1486.68 1494.73,1432.12 1438.59,1431.27C1384.34,1430.44 1269.1,1230.82 1269.1,1230.82L815.579,193.934C815.579,193.934 742.855,4.086 563.614,2.964C410.603,2.007 379.018,112.306 379.018,112.306C379.018,112.306 337.531,1.653 195.13,-1.174C2.122,-5.007 -2.05,207.103 -2.05,207.103Z" style="stroke:black;stroke-width:1px;"/>
    </g>
</svg>
