<?xml version="1.0" encoding="UTF-8" standalone="no"?>
<!DOCTYPE svg PUBLIC "-//W3C//DTD SVG 1.1//EN" "http://www.w3.org/Graphics/SVG/1.1/DTD/svg11.dtd">
<svg width="100%" height="100%" viewBox="0 0 2048 2048" version="1.1" xmlns="http://www.w3.org/2000/svg" xmlns:xlink="http://www.w3.org/1999/xlink" xml:space="preserve" xmlns:serif="http://www.serif.com/" style="fill-rule:evenodd;clip-rule:evenodd;stroke-linecap:round;stroke-linejoin:round;stroke-miterlimit:1.5;">
    <g transform="matrix(1,0,0,1.06775,0,-111.098)">
        <g id="レイヤー6">
            <path d="M204.59,1505.03L205.861,1603.54C205.861,1603.54 204.378,1636.92 239.915,1637.35C409.931,1639.39 1024.99,1642.15 1176.1,1638.25C1228,1636.91 1230.79,1590.29 1230.79,1590.29C1230.79,1590.29 1232.2,484 1231.28,247.065C1231.12,207.834 1173.86,205.293 1173.86,205.293C1173.86,205.293 519.134,205.497 312.533,206.846C208.883,207.523 206.54,129.241 206.54,129.241C206.54,129.241 205.772,106.954 186.028,106.704C155.699,106.321 72.308,105.86 26.219,106.172C4.249,106.32 2.649,130.66 2.649,130.66C2.649,130.66 0.723,355.287 203.856,358.799C412.974,362.415 1026.93,353.531 1026.93,353.531L1025,828.879C1025,828.879 411.388,824.448 344.408,825.334C303.002,825.881 303.71,855.773 303.71,855.773L305.676,942.738C305.676,942.738 308.566,970.63 341.953,970.916C409.055,971.492 1024.86,975.513 1024.86,975.513L1022.37,1473.32C1022.37,1473.32 411.574,1479.46 237.314,1477.58C206.71,1477.26 204.59,1505.03 204.59,1505.03Z" style="stroke:black;stroke-width:0.97px;"/>
        </g>
    </g>
</svg>
