<?xml version="1.0" encoding="UTF-8" standalone="no"?>
<!DOCTYPE svg PUBLIC "-//W3C//DTD SVG 1.1//EN" "http://www.w3.org/Graphics/SVG/1.1/DTD/svg11.dtd">
<svg width="100%" height="100%" viewBox="0 0 2048 2048" version="1.1" xmlns="http://www.w3.org/2000/svg" xmlns:xlink="http://www.w3.org/1999/xlink" xml:space="preserve" xmlns:serif="http://www.serif.com/" style="fill-rule:evenodd;clip-rule:evenodd;stroke-linecap:round;stroke-linejoin:round;stroke-miterlimit:1.5;">
    <g id="レイヤー6">
        <path d="M609.612,327.372C609.612,327.372 609.863,815.007 610.77,1024.14C611.214,1126.53 715.794,1127.87 715.794,1127.87C715.794,1127.87 785.561,1129.84 819.183,1128.4C1023.54,1119.65 1431.94,812.139 1433.48,510.948C1435.08,197.48 1223.55,-0.483 1023.54,-0.282C410.684,0.332 4.364,551.598 2.851,919.792C1.293,1299.29 205.579,1645.65 611.647,1639C920.306,1633.95 1027.77,1533.39 1169.02,1437.47C1169.84,1436.91 1227.27,1398.14 1231.91,1345.26C1234.28,1318.29 1231.62,1316.88 1230.83,1280.18C1228.7,1180.36 1141.11,1227.1 1139.14,1228.52C1023.76,1311.83 482.555,1719.72 261.963,1106.7C91.974,634.307 609.612,327.372 609.612,327.372ZM819.46,257.339C819.46,257.339 925.312,211.41 1022.42,215.121C1124.19,219.009 1229.3,315.808 1226.65,516.74C1222.81,809.056 815.04,928.973 815.04,928.973L819.46,257.339Z" style="stroke:black;stroke-width:1px;"/>
    </g>
</svg>
