<?xml version="1.0" encoding="UTF-8" standalone="no"?>
<!DOCTYPE svg PUBLIC "-//W3C//DTD SVG 1.1//EN" "http://www.w3.org/Graphics/SVG/1.1/DTD/svg11.dtd">
<svg width="100%" height="100%" viewBox="0 0 2048 2048" version="1.1" xmlns="http://www.w3.org/2000/svg" xmlns:xlink="http://www.w3.org/1999/xlink" xml:space="preserve" xmlns:serif="http://www.serif.com/" style="fill-rule:evenodd;clip-rule:evenodd;stroke-linecap:round;stroke-linejoin:round;stroke-miterlimit:1.5;">
    <g id="レイヤー5">
    </g>
    <g id="レイヤー6">
        <path d="M1225.48,413.196C1225.48,413.196 1232.18,2.855 614.402,3.99C204.727,4.743 -1.939,292.915 0.177,815.445C2.23,1322.6 206.953,1638.07 618.118,1638.21C1229.39,1638.41 1233.19,1227.16 1233.19,1227.16L1232.03,918.926L1386.23,916.048C1386.23,916.048 1434.58,916.062 1435.9,870.019C1436.67,843.313 1435.33,785.253 1435.45,758.738C1435.64,718.518 1377.68,716.014 1377.68,716.014L671.135,714.341C671.135,714.341 615.119,716.619 615.919,768.081C616.347,795.564 614.957,842.825 615.077,869.437C615.321,923.374 677.42,925.533 677.42,925.533L1025.65,925.122L1024.42,1228.51C1024.42,1228.51 1019.64,1431.44 617.845,1436.41C409.571,1438.99 203.055,1225 204.067,821.067C205.077,417.414 309.703,208.274 615.26,203.263C1027.36,196.505 1023.41,410.967 1023.41,410.967L1024.92,715.179L1229.39,715.663L1225.48,413.196Z" style="stroke:black;stroke-width:1px;"/>
    </g>
</svg>
