<?xml version="1.0" encoding="UTF-8" standalone="no"?>
<!DOCTYPE svg PUBLIC "-//W3C//DTD SVG 1.1//EN" "http://www.w3.org/Graphics/SVG/1.1/DTD/svg11.dtd">
<svg width="100%" height="100%" viewBox="0 0 2048 2048" version="1.1" xmlns="http://www.w3.org/2000/svg" xmlns:xlink="http://www.w3.org/1999/xlink" xml:space="preserve" xmlns:serif="http://www.serif.com/" style="fill-rule:evenodd;clip-rule:evenodd;stroke-linecap:round;stroke-linejoin:round;stroke-miterlimit:1.5;">
    <g transform="matrix(-1,0,0,1,1226.58,0)">
        <g id="レイヤー6">
            <path d="M206.509,1586.71C207.425,1302.64 208.338,1018.56 207.584,734.486C207.264,614.093 205.902,493.704 205.66,373.311C205.592,339.215 211.464,304.939 229.126,275.287C258.36,226.211 317.929,208.533 371.866,207.872C464.639,206.736 557.418,206.054 650.196,205.346C742.183,204.644 834.17,203.651 926.16,203.642C931.823,203.642 937.529,204.132 943.066,205.319C990.278,215.444 1008.32,265.827 1017.27,307.482C1020.61,323.027 1021.71,339.778 1022.4,355.614C1023.36,365.538 1026,372.586 1030.12,382.464C1046.06,420.743 1099.94,410.734 1131.42,410.231C1162.66,409.732 1209.52,419.654 1224.28,381.699C1227.74,372.809 1230.03,364.192 1230.49,354.832C1229.75,305.886 1222.31,256.127 1209.64,208.877C1200.38,174.338 1187.4,140.4 1168.88,109.691C1140.68,62.908 1099.83,24.655 1046.67,9.316C1026.87,3.604 1006.19,1.173 985.629,1.043C865.299,0.281 744.967,-0.062 624.636,-0.43C499.572,-0.813 374.508,-1.262 249.444,-1.208C230.798,-1.2 212.799,4.203 195.8,11.574C166.831,24.136 139.699,43.984 115.894,64.325C98.514,79.174 79.483,98.319 64.455,115.91C43.351,140.614 24.329,167.696 11.085,197.502C2.739,216.283 -3.995,236.386 -3.915,257.173C-2.216,703.199 -0.022,1149.22 2.376,1595.25C2.847,1603.3 5.093,1609.18 8.579,1617.05C18.416,1639.25 47.106,1640.61 67.661,1640.5C79.276,1640.44 90.883,1639.77 102.498,1639.64C132.634,1639.29 184.042,1649.34 200.467,1612.35C204.891,1602.39 205.924,1596.35 206.509,1586.71Z" style="stroke:black;stroke-width:1px;"/>
        </g>
    </g>
</svg>
