<?xml version="1.0" encoding="UTF-8" standalone="no"?>
<!DOCTYPE svg PUBLIC "-//W3C//DTD SVG 1.1//EN" "http://www.w3.org/Graphics/SVG/1.1/DTD/svg11.dtd">
<svg width="100%" height="100%" viewBox="0 0 2048 2048" version="1.1" xmlns="http://www.w3.org/2000/svg" xmlns:xlink="http://www.w3.org/1999/xlink" xml:space="preserve" xmlns:serif="http://www.serif.com/" style="fill-rule:evenodd;clip-rule:evenodd;stroke-linecap:round;stroke-linejoin:round;stroke-miterlimit:1.5;">
    <g id="レイヤー6">
        <path d="M-0.331,60.787L0.783,1577.32C0.783,1577.32 2.183,1637.68 55.261,1638.97C82.465,1639.63 122.925,1640.55 152.852,1640.01C184.123,1639.45 254.44,1619.57 280.895,1602.83C547.08,1434.38 1230.95,1025.5 1229.25,412.982C1229.25,412.701 1225.01,206.357 1432.61,206.659C1434.84,206.663 1644.88,207.235 1642.66,413.717C1638.84,769.865 922.071,1431.87 661.353,1534.92C642.54,1542.36 614.311,1564.93 614.368,1588.14C614.493,1638.82 663.121,1640.22 663.121,1640.22C663.121,1640.22 744.057,1640.68 775.555,1640.21C801.816,1639.83 831.788,1623.14 854.947,1605.99C1085.18,1435.47 1846.27,917.48 1842.71,406.342C1839.86,-1.346 1437.36,0.808 1435.31,0.849C1234.61,4.945 1130.62,116.196 1130.62,116.196C1130.62,116.196 1081.56,2.317 834.402,1.243C418.716,-0.563 409.83,351.933 409.83,351.933C409.83,351.933 408.094,410.25 461.679,408.942C488.56,408.286 533.55,410.836 560.286,410.181C616.375,408.806 613.123,355.903 613.123,355.903C613.123,355.903 616.074,201.67 821.649,203.688C1026.31,205.697 1020.98,408.997 1021.02,416.352C1023.72,1023.06 203.036,1437.81 203.036,1437.81L207.059,63.618C207.059,63.618 205.449,1.195 152.682,1.095C129.331,1.051 87.303,-0.785 59.564,-0.319C2.5,0.64 -0.331,60.787 -0.331,60.787Z" style="stroke:black;stroke-width:1px;"/>
    </g>
</svg>
