<?xml version="1.0" encoding="UTF-8" standalone="no"?>
<!DOCTYPE svg PUBLIC "-//W3C//DTD SVG 1.1//EN" "http://www.w3.org/Graphics/SVG/1.1/DTD/svg11.dtd">
<svg width="100%" height="100%" viewBox="0 0 2048 2048" version="1.1" xmlns="http://www.w3.org/2000/svg" xmlns:xlink="http://www.w3.org/1999/xlink" xml:space="preserve" xmlns:serif="http://www.serif.com/" style="fill-rule:evenodd;clip-rule:evenodd;stroke-linecap:round;stroke-linejoin:round;stroke-miterlimit:1.5;">
    <g id="レイヤー6">
        <path d="M723.862,53.98C723.862,53.98 722.806,2.196 682.816,1.715C655.835,1.392 596.156,0.729 570.253,2.042C530.257,4.07 527.935,55.413 527.935,55.413L515.424,1433.22L46.059,1431.83C46.059,1431.83 1.574,1433.32 1.542,1486.17C1.524,1514.82 0.29,1567.29 0.56,1597.58C0.925,1638.51 48.36,1638.33 48.36,1638.33C48.36,1638.33 614.513,1645.62 924.653,1641.57C1127.36,1638.92 1228.68,1474.41 1229.14,1392.21C1229.35,1355.75 1230.2,1272.62 1230.2,1272.62C1230.2,1272.62 1229.61,1226.6 1176.23,1227.22C1139.22,1227.65 1125.63,1275.02 1125.63,1275.02C1125.63,1275.02 1118.6,1429.84 928.393,1431.92C868.562,1432.58 724.71,1435.25 724.71,1435.25L723.862,53.98Z" style="stroke:black;stroke-width:1px;"/>
    </g>
</svg>
