<?xml version="1.0" encoding="UTF-8" standalone="no"?>
<!DOCTYPE svg PUBLIC "-//W3C//DTD SVG 1.1//EN" "http://www.w3.org/Graphics/SVG/1.1/DTD/svg11.dtd">
<svg width="100%" height="100%" viewBox="0 0 2048 2048" version="1.1" xmlns="http://www.w3.org/2000/svg" xmlns:xlink="http://www.w3.org/1999/xlink" xml:space="preserve" xmlns:serif="http://www.serif.com/" style="fill-rule:evenodd;clip-rule:evenodd;stroke-linecap:round;stroke-linejoin:round;stroke-miterlimit:1.5;">
    <g id="レイヤー6">
        <path d="M204.295,1487.55C204.094,1516.77 202.146,1550.4 203.282,1578.56C205.527,1634.21 265.183,1637.18 265.183,1637.18L1229.11,1634.68C1229.11,1634.68 1432.45,1642.79 1433.21,1445.42C1433.55,1356.72 1427.69,1236.96 1228.78,822.93C1040.57,431.186 817.938,-0.299 504.388,-1.739C14.522,-3.988 1.622,408.904 1.622,408.904L0,569.952C0,569.952 0.061,614.13 51.548,613.755C79.69,613.55 127.413,615.241 154.97,615.143C206.465,614.96 205.049,565.905 205.049,565.905L205.305,410.468C205.305,410.468 213.033,202.937 512.446,207.373C818.084,211.902 1021.16,824.106 1212.32,1300.73C1231.54,1348.66 1228.38,1432.09 1122.32,1431.65C884.992,1430.69 270.361,1433.35 270.361,1433.35C270.361,1433.35 204.659,1434.6 204.295,1487.55Z" style="stroke:black;stroke-width:1px;"/>
    </g>
</svg>
