<?xml version="1.0" encoding="UTF-8" standalone="no"?>
<!DOCTYPE svg PUBLIC "-//W3C//DTD SVG 1.1//EN" "http://www.w3.org/Graphics/SVG/1.1/DTD/svg11.dtd">
<svg width="100%" height="100%" viewBox="0 0 2048 2048" version="1.1" xmlns="http://www.w3.org/2000/svg" xmlns:xlink="http://www.w3.org/1999/xlink" xml:space="preserve" xmlns:serif="http://www.serif.com/" style="fill-rule:evenodd;clip-rule:evenodd;stroke-linejoin:round;stroke-miterlimit:2;">
    <g id="レイヤー6">
        <path d="M1228.33,870.031C1228.33,1026.44 1203.05,1162.93 1152.49,1279.51C1101.93,1396.08 1030.31,1485.07 937.626,1546.46C844.939,1607.85 736.805,1638.55 613.223,1638.55C492.449,1638.55 385.368,1607.67 291.979,1545.91C198.591,1484.15 126.091,1396.08 74.482,1281.7C22.872,1167.32 -3.635,1034.84 -5.039,884.283L-5.039,769.17C-5.039,615.685 20.59,480.107 71.849,362.436C123.107,244.764 195.606,154.684 289.346,92.194C383.086,29.704 490.343,-1.542 611.116,-1.542C733.996,-1.542 842.306,29.338 936.046,91.097C1029.79,152.857 1101.93,242.389 1152.49,359.695C1203.05,477.001 1228.33,613.493 1228.33,769.17L1228.33,870.031ZM321.167,1321.19C393.919,1413.63 491.271,1459.85 613.223,1459.85C743.827,1459.85 844.939,1410.33 916.561,1311.3C988.182,1212.27 1025.05,1070.29 1027.15,885.379L1027.15,766.977C1027.15,577.68 990.64,432.418 917.614,331.191C844.588,229.964 742.422,179.351 611.116,179.351C483.321,179.351 382.735,229.964 309.358,331.191C235.981,432.418 198.239,572.929 196.133,752.725L196.133,870.031C196.133,998.611 214.329,1107.89 250.723,1197.88L617.749,818.081C617.749,818.081 650.621,788.238 699.181,787.909C736.175,787.657 798.396,787.024 820.194,787.496C845.875,788.053 820.152,817.962 820.152,817.962L321.167,1321.19Z" style="fill-rule:nonzero;"/>
    </g>
</svg>
