<?xml version="1.0" encoding="UTF-8" standalone="no"?>
<!DOCTYPE svg PUBLIC "-//W3C//DTD SVG 1.1//EN" "http://www.w3.org/Graphics/SVG/1.1/DTD/svg11.dtd">
<svg width="100%" height="100%" viewBox="0 0 2048 2048" version="1.1" xmlns="http://www.w3.org/2000/svg" xmlns:xlink="http://www.w3.org/1999/xlink" xml:space="preserve" xmlns:serif="http://www.serif.com/" style="fill-rule:evenodd;clip-rule:evenodd;stroke-linecap:round;stroke-linejoin:round;stroke-miterlimit:1.5;">
    <g id="レイヤー6">
        <path d="M202.764,314.388C203.134,344.228 204.808,1594.32 204.808,1594.32C204.808,1594.32 205.409,1637.86 246.912,1638.86C275.699,1639.56 339.331,1639.8 368.673,1639.09C410.23,1638.09 409.717,1597.21 409.717,1597.21L411.047,1432.83C411.047,1432.83 555.068,1582.8 670.643,1585.3C1022.5,1592.89 1020.37,1225.93 1020.37,1225.93C1020.37,1225.93 1022.58,879.504 670.037,884.443C545.498,886.188 408.913,1011.28 408.913,1011.28C408.913,1011.28 407.992,306.171 406.522,202.891C403.649,1.072 100.861,0 100.861,0L47.108,0C47.108,0 1.137,1.215 0,47.35C-0.658,74.068 -0.788,128.256 0,155.446C1.393,203.515 49.824,203.436 49.824,203.436L93.586,203.015C93.586,203.015 201.434,207.041 202.764,314.388ZM815.001,1230.37C815.001,1230.37 815.206,1382.47 675.545,1386.55C520.303,1391.08 412.679,1228.24 412.679,1228.24C412.679,1228.24 515.595,1088.53 670.362,1089.85C812.596,1091.06 815.001,1230.37 815.001,1230.37Z" style="stroke:black;stroke-width:1px;"/>
    </g>
</svg>
