<?xml version="1.0" encoding="UTF-8" standalone="no"?>
<!DOCTYPE svg PUBLIC "-//W3C//DTD SVG 1.1//EN" "http://www.w3.org/Graphics/SVG/1.1/DTD/svg11.dtd">
<svg width="100%" height="100%" viewBox="0 0 2048 2048" version="1.1" xmlns="http://www.w3.org/2000/svg" xmlns:xlink="http://www.w3.org/1999/xlink" xml:space="preserve" xmlns:serif="http://www.serif.com/" style="fill-rule:evenodd;clip-rule:evenodd;stroke-linecap:round;stroke-linejoin:round;stroke-miterlimit:1.5;">
    <g id="レイヤー6">
        <path d="M49.156,1638.12L204.782,1639.92C204.782,1639.92 412.799,1637.9 412.7,1427.91C412.606,1229.79 408.136,628.904 405.886,413.311C404.796,308.905 420.372,207.083 529.004,206.31C736.774,204.831 721.546,204.024 926.16,203.642C1022.19,203.463 1023.96,409.198 1023.96,409.198C1023.96,409.198 1024.67,448.925 1062.63,449.68C1092.45,450.274 1161.77,451.496 1191.97,451.009C1229.52,450.403 1228.83,411.161 1228.83,411.161C1228.83,411.161 1190.41,3.401 984.472,3.435C799.243,3.465 617.088,-0.309 412.927,1.033C316.305,1.668 203.083,115.196 203.356,211.82C204.088,470.94 206.034,1022.04 204.331,1335.92C203.835,1427.37 105.018,1433.16 105.018,1433.16L47.683,1432.82C47.683,1432.82 0.518,1432.55 0,1482.09C-0.292,1510.08 1.062,1566.98 1.757,1595.46C2.842,1639.97 49.156,1638.12 49.156,1638.12Z"/>
        <path d="M353.308,614.495L352.277,821.029C352.277,821.029 361.303,819.703 459.962,820.095C818.497,821.517 820.553,561.537 820.553,561.537L820.553,516.918C820.553,516.918 819.398,480.637 782.258,479.959C751.765,479.402 679.357,480.902 649.371,480.656C614.057,480.368 614.626,512.803 614.626,512.803C614.626,512.803 618.637,613.414 525.698,613.457C415.762,613.509 353.308,614.495 353.308,614.495Z" style="stroke:black;stroke-width:1px;"/>
    </g>
</svg>
