<?xml version="1.0" encoding="UTF-8" standalone="no"?>
<!DOCTYPE svg PUBLIC "-//W3C//DTD SVG 1.1//EN" "http://www.w3.org/Graphics/SVG/1.1/DTD/svg11.dtd">
<svg width="100%" height="100%" viewBox="0 0 2048 2048" version="1.1" xmlns="http://www.w3.org/2000/svg" xmlns:xlink="http://www.w3.org/1999/xlink" xml:space="preserve" xmlns:serif="http://www.serif.com/" style="fill-rule:evenodd;clip-rule:evenodd;stroke-linecap:round;stroke-linejoin:round;stroke-miterlimit:1.5;">
    <g id="レイヤー5">
    </g>
    <g id="レイヤー6">
        <path d="M204.833,409.048C204.833,409.048 204.988,449.123 242.972,449.25C273.308,449.351 341.272,450.53 373.204,450.22C409.056,449.872 410.676,410.521 410.676,410.521C410.676,410.521 413.887,208.054 617.584,206.618C826.336,205.145 816.358,406.77 816.358,406.77L817.001,557.374C817.001,557.374 479.354,877.729 210.134,1134.5C85.864,1253.02 2.345,1365.9 3.134,1430.88C5.606,1634.55 266.5,1640.22 266.5,1640.22L356.465,1637.87C356.465,1637.87 411.608,1638.82 409.544,1581.94C408.535,1554.15 409.608,1516.25 409.344,1489.89C408.781,1433.63 359.005,1432.1 359.005,1432.1L272.787,1429.26C272.787,1429.26 170.163,1444.97 262.869,1350.37C375.44,1235.49 814.668,823.862 814.668,823.862C814.668,823.862 815.992,1228.84 819.345,1431.69C822.731,1636.57 1124.32,1638.12 1124.32,1638.12L1184.58,1638.39C1184.58,1638.39 1229.5,1637.34 1229.52,1586.34C1229.53,1558.52 1230.09,1515.33 1229.81,1485.78C1229.32,1432.45 1183.9,1433.95 1183.9,1433.95L1127.1,1433.82C1127.1,1433.82 1021.95,1430.44 1022.82,1335.88C1025.71,1019.28 1022.59,410.703 1022.59,410.703C1022.59,410.703 1024.79,-10.251 607.439,-3.44C204.736,3.132 204.833,409.048 204.833,409.048Z" style="stroke:black;stroke-width:1px;"/>
    </g>
</svg>
