<?xml version="1.0" encoding="UTF-8" standalone="no"?>
<!DOCTYPE svg PUBLIC "-//W3C//DTD SVG 1.1//EN" "http://www.w3.org/Graphics/SVG/1.1/DTD/svg11.dtd">
<svg width="100%" height="100%" viewBox="0 0 2048 2048" version="1.1" xmlns="http://www.w3.org/2000/svg" xmlns:xlink="http://www.w3.org/1999/xlink" xml:space="preserve" xmlns:serif="http://www.serif.com/" style="fill-rule:evenodd;clip-rule:evenodd;stroke-linecap:round;stroke-linejoin:round;stroke-miterlimit:1.5;">
    <g transform="matrix(0.727941,0,0,0.754956,0.0762862,401.897)">
        <g id="レイヤー6">
            <path d="M-0.105,62.204C1.541,555.232 0.64,1367.77 -0.105,1581.66C-0.299,1637.35 55.808,1639.73 55.808,1639.73L186.787,1640.94C186.787,1640.94 234.773,1636.08 235.059,1579.33C236.131,1366.26 234.579,549.599 234.579,549.599C234.579,549.599 339.737,240.994 604.242,238.328C604.447,238.326 895.831,231.364 900.398,499.945C905.892,823.048 654.039,824.025 654.039,824.025C654.039,824.025 611.62,834.931 612.125,875.462C614.89,1097.75 616.343,1866.75 616.343,1866.75C616.343,1866.75 619.51,1911.66 666.05,1911.56C771.861,1911.34 1022.07,1910.97 1086.24,1909.12C1123.17,1908.06 1125.26,1872.94 1125.26,1872.94L1125.26,1730.71C1125.26,1730.71 1122.79,1683.55 1085.61,1683.28C1053.83,1683.06 942.196,1686.89 880.688,1685.05C846.596,1684.03 843.919,1636.05 843.919,1636.05C843.919,1636.05 844.223,1368.39 843.919,1025.74C843.893,996.489 880.159,989.221 880.159,989.221C880.159,989.221 1123.88,977.172 1125.26,498.489C1126.66,11.254 613.658,7.54 612.744,7.542C327.315,8.167 226.472,211.748 226.472,211.748C226.472,211.748 226,125.998 224.322,63.906C222.87,10.184 177.205,12.003 177.205,12.003L44.25,10.948C44.25,10.948 -0.261,15.424 -0.105,62.204Z" style="stroke:black;stroke-width:1.35px;"/>
        </g>
    </g>
</svg>
