<?xml version="1.0" encoding="UTF-8" standalone="no"?>
<!DOCTYPE svg PUBLIC "-//W3C//DTD SVG 1.1//EN" "http://www.w3.org/Graphics/SVG/1.1/DTD/svg11.dtd">
<svg width="100%" height="100%" viewBox="0 0 2048 2048" version="1.1" xmlns="http://www.w3.org/2000/svg" xmlns:xlink="http://www.w3.org/1999/xlink" xml:space="preserve" xmlns:serif="http://www.serif.com/" style="fill-rule:evenodd;clip-rule:evenodd;stroke-linecap:round;stroke-linejoin:round;stroke-miterlimit:1.5;">
    <g transform="matrix(0.802193,0,0,0.875541,-0.495049,203.935)">
        <g id="レイヤー6">
            <path d="M0.938,39.96C2.051,234.95 -4.182,814.788 -2.113,1232.92C-1.111,1435.44 204.523,1640.17 510.201,1638.55C822.287,1636.91 1024.65,1433.85 1021.05,1229.07C1021.04,1228.88 1022.51,1191.93 982.727,1191.71C954.751,1191.56 885.558,1191.78 857.536,1192.21C821.055,1192.77 819.215,1229.49 819.215,1229.49C819.215,1229.49 821.981,1443.21 510.284,1443.36C210.001,1443.5 209.276,1169.09 209.276,1169.09L209.724,904.487C209.724,904.487 767.084,903.946 984.676,902.197C1022.01,901.897 1024.51,870.481 1024.51,870.481L1026.84,737.855C1026.84,737.855 1023.57,702.709 986.074,702.822C769.019,703.475 203.317,699.392 203.317,699.392C203.317,699.392 202.814,235.742 204.422,36.919C204.711,1.117 169.981,0.485 169.981,0.485L37.886,-0.317C37.886,-0.317 0.717,1.278 0.938,39.96Z" style="stroke:black;stroke-width:1.19px;"/>
        </g>
    </g>
</svg>
