<?xml version="1.0" encoding="UTF-8" standalone="no"?>
<!DOCTYPE svg PUBLIC "-//W3C//DTD SVG 1.1//EN" "http://www.w3.org/Graphics/SVG/1.1/DTD/svg11.dtd">
<svg width="100%" height="100%" viewBox="0 0 2048 2048" version="1.1" xmlns="http://www.w3.org/2000/svg" xmlns:xlink="http://www.w3.org/1999/xlink" xml:space="preserve" xmlns:serif="http://www.serif.com/" style="fill-rule:evenodd;clip-rule:evenodd;stroke-linecap:round;stroke-linejoin:round;stroke-miterlimit:1.5;">
    <g id="レイヤー5">
    </g>
    <g transform="matrix(0.778236,0,0,0.750777,-0.320896,410.82)">
        <g id="レイヤー6">
            <path d="M0.412,54.169C4.19,271.782 0.412,1580.92 0.412,1580.92C0.412,1580.92 4.247,1637.37 49.446,1635.92C66.784,1635.36 122.719,1637.86 122.719,1637.86C122.719,1637.86 180.232,1635.67 206.086,1617.95C509.691,1409.82 1231.67,974.425 1229.25,412.982C1229.25,412.701 1225.01,206.357 1432.61,206.659C1434.84,206.663 1644.88,207.235 1642.66,413.717C1638.96,759.298 788.698,1514.59 646.653,1591.33C628.245,1601.27 630.066,1617.65 630.067,1617.84C630.228,1636.29 641.968,1636.51 641.968,1636.51L789.488,1636.46C789.488,1636.46 824.507,1635.68 854.314,1613.99C1058.21,1465.65 1846.27,917.48 1842.71,406.342C1839.86,-1.346 1437.36,0.808 1435.31,0.849C1234.61,4.945 1130.62,116.196 1130.62,116.196C1130.62,116.196 1080.24,-0.598 833.08,-1.067C431.651,-1.829 405.413,410.922 405.413,410.922C405.413,410.922 406.634,444.939 440.662,445.265C468.391,445.531 526.398,446.005 570.449,444.574C605.635,443.431 607.637,410.566 607.637,410.566C607.637,410.566 624.492,204.193 830.066,206.211C1034.73,208.22 1020.98,408.997 1021.02,416.352C1023.07,857.996 203.036,1437.81 203.036,1437.81C203.036,1437.81 207.086,271.721 206.101,55.659C205.836,-2.513 154.917,-4.663 154.917,-4.663L49.268,-2.79C49.268,-2.79 -0.567,-2.249 0.412,54.169Z" style="stroke:black;stroke-width:1.31px;"/>
        </g>
    </g>
</svg>
