<?xml version="1.0" encoding="UTF-8" standalone="no"?>
<!DOCTYPE svg PUBLIC "-//W3C//DTD SVG 1.1//EN" "http://www.w3.org/Graphics/SVG/1.1/DTD/svg11.dtd">
<svg width="100%" height="100%" viewBox="0 0 2048 2048" version="1.1" xmlns="http://www.w3.org/2000/svg" xmlns:xlink="http://www.w3.org/1999/xlink" xml:space="preserve" xmlns:serif="http://www.serif.com/" style="fill-rule:evenodd;clip-rule:evenodd;stroke-linecap:round;stroke-linejoin:round;stroke-miterlimit:1.5;">
    <g id="レイヤー6">
        <path d="M0,437.857L-1.074,1228.98C-1.074,1228.98 6.034,1636.96 313.121,1638.2C611.494,1639.41 614.148,1231.35 614.148,1231.35L613.114,816.535C613.114,816.535 616.06,563.025 816.222,559.672C1024.96,556.175 1025.11,822.068 1025.11,822.068C1025.11,822.068 1023.58,1021.27 1023.93,1228.03C1024.34,1468.23 818.206,1460.05 818.206,1460.05L700.758,1459.92C700.758,1459.92 672.924,1464.29 673.336,1491.03C673.727,1516.38 673.638,1582.76 673.887,1609.53C674.174,1640.4 699.315,1638.46 699.315,1638.46L818.951,1639.79C818.951,1639.79 1191.4,1638.29 1190.88,1225.37C1190.64,1030.79 1187.16,822.187 1187.16,822.187C1187.16,822.187 1182.55,406.298 817.105,409.178C455.706,412.027 450.539,817.185 450.539,817.185L445.433,1232.19C445.433,1232.19 432.81,1461.5 312.406,1464.99C169.314,1469.13 171.057,1232.88 171.057,1232.88L172.426,437.185C172.426,437.185 171.697,408.609 140.266,408.552C116.54,408.508 56.781,409.371 33.948,409.432C1.637,409.518 0,437.857 0,437.857Z" style="stroke:black;stroke-width:1px;"/>
    </g>
</svg>
