<?xml version="1.0" encoding="UTF-8" standalone="no"?>
<!DOCTYPE svg PUBLIC "-//W3C//DTD SVG 1.1//EN" "http://www.w3.org/Graphics/SVG/1.1/DTD/svg11.dtd">
<svg width="100%" height="100%" viewBox="0 0 2048 2048" version="1.1" xmlns="http://www.w3.org/2000/svg" xmlns:xlink="http://www.w3.org/1999/xlink" xml:space="preserve" xmlns:serif="http://www.serif.com/" style="fill-rule:evenodd;clip-rule:evenodd;stroke-linecap:round;stroke-linejoin:round;stroke-miterlimit:1.5;">
    <g id="レイヤー5">
    </g>
    <g transform="matrix(0.98481,0,0,1,-0.0167766,0)">
        <g id="レイヤー6">
            <path d="M1197.16,570.805C1196.9,520.973 1123.08,410.978 833.328,408.668C627.88,407.031 379.971,608.966 379.971,608.966L373.943,467.328C373.943,467.328 373.499,409.325 329.93,408.931C307.982,408.732 282.261,408.381 259.374,409.073C209.397,410.585 206.213,467.825 206.213,467.825C206.213,467.825 204.372,693.169 204.995,1022.81C205.387,1230.22 210.365,1642.35 117.409,1842.4C86.194,1909.58 3.493,1942.22 1.561,1994.05C-0.422,2047.3 46.936,2046.53 46.936,2046.53C46.936,2046.53 111.855,2049.2 162.876,2047.11C206.978,2045.31 283.278,1997.81 318.958,1847.77C367.914,1641.9 388.112,1436.35 388.112,1436.35C388.112,1436.35 415.685,1519.87 740.538,1521.17C1126.65,1522.71 1140.11,1147.62 1140.11,1147.62C1140.11,1147.62 1147.81,818.702 733.687,819.612C478.576,820.173 380.946,958.796 380.946,958.796L379.15,776.848C379.15,776.848 563.642,571.982 833.399,570.617C1096.78,569.285 1090.7,616.494 1140.1,668.911C1153.1,682.712 1197.46,711.65 1197.24,664.814C1197,614.452 1197.39,613.653 1197.16,570.805ZM384.283,1266.56L384.252,1139.7C384.252,1139.7 530.539,985.276 730.079,987.119C983.574,989.459 982.269,1147.56 982.269,1147.56C982.269,1147.56 987.702,1361.98 737.242,1364.96C536.851,1367.36 384.283,1266.56 384.283,1266.56Z" style="stroke:black;stroke-width:1.01px;"/>
        </g>
    </g>
</svg>
