<?xml version="1.0" encoding="UTF-8" standalone="no"?>
<!DOCTYPE svg PUBLIC "-//W3C//DTD SVG 1.1//EN" "http://www.w3.org/Graphics/SVG/1.1/DTD/svg11.dtd">
<svg width="100%" height="100%" viewBox="0 0 2048 2048" version="1.1" xmlns="http://www.w3.org/2000/svg" xmlns:xlink="http://www.w3.org/1999/xlink" xml:space="preserve" xmlns:serif="http://www.serif.com/" style="fill-rule:evenodd;clip-rule:evenodd;stroke-linecap:round;stroke-linejoin:round;stroke-miterlimit:1.5;">
    <g id="レイヤー5">
    </g>
    <g id="レイヤー6">
        <path d="M8.299,1434.31C8.299,1434.31 206.698,1640.73 461.847,1639.82C1027.46,1637.79 1024.52,1024.36 1024.52,1024.36C1024.52,1024.36 1024.35,411.821 510.576,412.182C206.594,412.396 16.333,614.368 16.333,614.368C16.333,614.368 6.6,627.252 33.823,639.745C52.88,648.49 109.343,668.561 129.653,674.306C148.407,679.611 163.342,663.625 163.342,663.625C163.342,663.625 255.997,566.56 508.719,567.385C856.869,568.521 853.756,928.323 853.756,928.323L204.537,929.224C204.537,929.224 181.928,930.199 181.434,955.801C181.017,977.375 180.852,1024.74 181.508,1054.68C182.057,1079.76 206.935,1080.67 206.935,1080.67L858.734,1075.03C858.734,1075.03 854.367,1477.01 460.28,1477.39C252.245,1477.59 151.866,1378.8 151.866,1378.8C151.866,1378.8 133.964,1361.87 113.242,1369.78C94.019,1377.12 47.98,1396.04 29.69,1405.31C2.022,1419.33 8.299,1434.31 8.299,1434.31Z" style="stroke:black;stroke-width:1px;"/>
    </g>
</svg>
