<?xml version="1.0" encoding="UTF-8" standalone="no"?>
<!DOCTYPE svg PUBLIC "-//W3C//DTD SVG 1.1//EN" "http://www.w3.org/Graphics/SVG/1.1/DTD/svg11.dtd">
<svg width="100%" height="100%" viewBox="0 0 2048 2048" version="1.1" xmlns="http://www.w3.org/2000/svg" xmlns:xlink="http://www.w3.org/1999/xlink" xml:space="preserve" xmlns:serif="http://www.serif.com/" style="fill-rule:evenodd;clip-rule:evenodd;stroke-linecap:round;stroke-linejoin:round;stroke-miterlimit:1.5;">
    <g id="レイヤー6">
        <path d="M1024.28,1289.74L1025.05,929.107C1025.05,929.107 1023.23,403.343 620.701,403.303C4.304,403.242 1.013,1135.27 1.013,1135.27C1.013,1135.27 2.765,1842.66 614.454,1843.77C614.553,1843.77 643.005,1843.58 643.19,1815.26C643.341,1792.22 642.317,1727.31 640.964,1706.2C639.323,1680.62 615.991,1681.04 613.94,1681.02C165.64,1676.79 162.642,1136.91 162.642,1136.91C162.642,1136.91 163.058,570.859 615.645,565.342C855.546,562.417 871.085,929.879 871.085,929.879L874.491,1285.5C874.491,1285.5 876.58,1320.4 908.043,1320.78C928.139,1321.02 971.626,1321.74 991.316,1321.28C1024.66,1320.5 1024.28,1289.74 1024.28,1289.74Z" style="stroke:black;stroke-width:1px;"/>
    </g>
</svg>
