<?xml version="1.0" encoding="UTF-8" standalone="no"?>
<!DOCTYPE svg PUBLIC "-//W3C//DTD SVG 1.1//EN" "http://www.w3.org/Graphics/SVG/1.1/DTD/svg11.dtd">
<svg width="100%" height="100%" viewBox="0 0 2048 2048" version="1.1" xmlns="http://www.w3.org/2000/svg" xmlns:xlink="http://www.w3.org/1999/xlink" xml:space="preserve" xmlns:serif="http://www.serif.com/" style="fill-rule:evenodd;clip-rule:evenodd;stroke-linejoin:round;stroke-miterlimit:2;">
    <g transform="matrix(0.832738,0,0,0.854281,2.04725,420.905)">
        <g id="レイヤー6">
            <path d="M0.292,31.332C-2.088,224 0.011,1183.72 -0.887,1377.2C-1.095,1421.96 35.696,1427.45 35.696,1427.45L158.76,1429C158.76,1429 199.561,1428.67 200.577,1376.59C201.496,1329.43 205.433,1074.49 205.433,1074.49C205.433,1074.49 733.75,1549.17 1122.1,1199.72C1469.94,886.715 984.937,183.578 984.937,183.578C984.937,183.578 1228.94,184.567 1334.31,183.446C1364.5,183.125 1366.64,151.785 1366.64,151.785L1368.97,19.786C1368.97,19.786 1369.78,-11.875 1336.31,-12.586C1230.63,-14.829 982.319,-14.85 773.301,-13.631C733.877,-13.401 732.587,22.832 732.587,22.832C732.587,22.832 732.464,133.302 733.461,176.318C734.539,222.863 1196.26,777.852 972.755,1059.03C761.804,1324.41 200.844,914.856 200.021,704.215C199.617,600.794 201.141,225.775 201.929,31.533C202.097,-10.006 160.436,-12.779 160.436,-12.779L42.759,-12.647C42.759,-12.647 0.842,-13.237 0.292,31.332Z"/>
        </g>
    </g>
</svg>
