<?xml version="1.0" encoding="UTF-8" standalone="no"?>
<!DOCTYPE svg PUBLIC "-//W3C//DTD SVG 1.1//EN" "http://www.w3.org/Graphics/SVG/1.1/DTD/svg11.dtd">
<svg width="100%" height="100%" viewBox="0 0 2048 2048" version="1.1" xmlns="http://www.w3.org/2000/svg" xmlns:xlink="http://www.w3.org/1999/xlink" xml:space="preserve" xmlns:serif="http://www.serif.com/" style="fill-rule:evenodd;clip-rule:evenodd;stroke-linecap:round;stroke-linejoin:round;stroke-miterlimit:1.5;">
    <g id="レイヤー6">
        <path d="M0.603,224.609C0.595,409.004 0.223,1432.4 0.257,1611.81C0.262,1635.53 22.666,1639.03 22.666,1639.03L137.572,1639.3C137.572,1639.3 159.119,1638.22 159.438,1613.99C160.515,1532.12 164.29,1143.26 164.29,1143.26C164.29,1143.26 208.674,1053.52 413.314,1053.34C677.086,1053.12 667.463,1224.32 667.463,1224.32C667.463,1224.32 668.786,1543.86 669.752,1610.75C670.146,1637.98 694.372,1638.49 694.372,1638.49L789.997,1639.37C789.997,1639.37 819.569,1637.97 820.317,1604.97C821.146,1568.46 820.478,1542.14 820.664,1234.02C820.852,923.642 616.903,920.217 616.903,920.217C616.903,920.217 713.684,918.328 718.966,723.919C720.366,672.378 718.103,652.049 717.938,633.347C717.767,614.035 698.972,613.981 698.972,613.981L599.695,614.598C599.695,614.598 578.092,614.858 578.022,637.794C577.968,655.294 575.812,720.235 575.812,720.235C575.812,720.235 566.789,916.749 403.861,920.732C293.713,923.424 145.542,985.059 145.542,985.059C145.542,985.059 152.758,410.852 154.843,225.284C155.073,204.807 136.196,202.875 136.196,202.875L20.989,203.834C20.989,203.834 0.604,203.762 0.603,224.609Z" style="stroke:black;stroke-width:1px;"/>
    </g>
</svg>
