<?xml version="1.0" encoding="UTF-8" standalone="no"?>
<!DOCTYPE svg PUBLIC "-//W3C//DTD SVG 1.1//EN" "http://www.w3.org/Graphics/SVG/1.1/DTD/svg11.dtd">
<svg width="100%" height="100%" viewBox="0 0 2048 2048" version="1.1" xmlns="http://www.w3.org/2000/svg" xmlns:xlink="http://www.w3.org/1999/xlink" xml:space="preserve" xmlns:serif="http://www.serif.com/" style="fill-rule:evenodd;clip-rule:evenodd;stroke-linecap:round;stroke-linejoin:round;stroke-miterlimit:1.5;">
    <g id="レイヤー6">
        <path d="M769.998,25.697C769.998,25.697 768.699,1.953 746.455,1.425C723.733,0.886 663.976,1.64 641.869,1.748C613.516,1.886 614.958,29.841 614.958,29.841L614.737,615.971C614.737,615.971 -3.356,613.28 -1.013,1128.27C1.289,1634.27 614.964,1638.45 614.964,1638.45L743.33,1638.1C743.33,1638.1 774.71,1639.37 774.37,1601.21C772.875,1433.83 767.524,787.203 767.524,787.203L1197.65,784.35C1197.65,784.35 1229.22,784.141 1229.13,756.345C1229.06,733.344 1228.53,672.091 1228.9,647.885C1229.42,614.041 1197.91,614.642 1197.91,614.642L771.478,616.251L769.998,25.697ZM614.138,787.877C614.138,787.877 614.242,1228.18 614.382,1435.23C614.408,1474.82 585.258,1473.69 585.258,1473.69C585.258,1473.69 159.652,1462.55 162.1,1128.48C164.587,788.999 614.138,787.877 614.138,787.877Z" style="stroke:black;stroke-width:1px;"/>
    </g>
</svg>
