<?xml version="1.0" encoding="UTF-8" standalone="no"?>
<!DOCTYPE svg PUBLIC "-//W3C//DTD SVG 1.1//EN" "http://www.w3.org/Graphics/SVG/1.1/DTD/svg11.dtd">
<svg width="100%" height="100%" viewBox="0 0 2048 2048" version="1.1" xmlns="http://www.w3.org/2000/svg" xmlns:xlink="http://www.w3.org/1999/xlink" xml:space="preserve" xmlns:serif="http://www.serif.com/" style="fill-rule:evenodd;clip-rule:evenodd;stroke-linecap:round;stroke-linejoin:round;stroke-miterlimit:1.5;">
    <g transform="matrix(0.715235,0,0,0.752479,-1.61981,406.896)">
        <g id="レイヤー6">
            <path d="M1436.01,513.532C1432.61,278.699 1222.46,3.127 812.217,5.012C424.58,6.793 205.773,281.046 206.773,509.053C208.702,948.49 572.52,942.122 572.53,944.018C576.188,1639.88 49.911,1697.98 49.911,1697.98C49.911,1697.98 3.006,1701.73 2.265,1742.42C1.73,1771.73 -0.306,1836.56 2.265,1867.96C5.289,1904.89 55.722,1909.06 55.722,1909.06C55.722,1909.06 809.215,1908.21 808.455,867.669C808.421,821.492 762.912,820.095 762.912,820.095C762.912,820.095 418.809,813.543 416.613,500.158C415.308,313.834 613.091,207.503 810.77,203.659C1022.33,199.546 1198.19,333.218 1197.96,516.147C1197.73,704.122 1203.29,1364.05 1204.24,1600.67C1204.38,1636.75 1240.97,1637.3 1240.97,1637.3L1396.88,1637.35C1396.88,1637.35 1433.4,1636.8 1433.96,1596.95C1437.24,1364.15 1440.36,813.907 1436.01,513.532Z" style="stroke:black;stroke-width:1.36px;"/>
        </g>
    </g>
</svg>
