<?xml version="1.0" encoding="UTF-8" standalone="no"?>
<!DOCTYPE svg PUBLIC "-//W3C//DTD SVG 1.1//EN" "http://www.w3.org/Graphics/SVG/1.1/DTD/svg11.dtd">
<svg width="100%" height="100%" viewBox="0 0 2048 2048" version="1.1" xmlns="http://www.w3.org/2000/svg" xmlns:xlink="http://www.w3.org/1999/xlink" xml:space="preserve" xmlns:serif="http://www.serif.com/" style="fill-rule:evenodd;clip-rule:evenodd;stroke-linecap:round;stroke-linejoin:round;stroke-miterlimit:1.5;">
    <g id="レイヤー4">
    </g>
    <g id="レイヤー6">
        <path d="M621.046,2047.59C621.046,2047.59 757.029,2046.98 792.37,2045.87C818.664,2045.05 821.778,2010.96 821.778,2010.96L821.15,1923.7C821.15,1923.7 820.197,1888.48 790.469,1889.01C754.872,1889.66 616.184,1889.1 616.184,1889.1C616.184,1889.1 164.362,1904.91 162.532,1232.46C160.727,569.113 818.986,575.49 818.986,575.49C818.986,575.49 864.104,575.69 864.604,616.339C865.12,658.231 863.13,870.535 863.13,870.535C863.13,870.535 680.328,873.362 640.566,873.146C615.392,873.009 616.045,899.388 616.045,899.388L615.935,998.108C615.935,998.108 616.718,1024.79 640.101,1025.04C682.059,1025.48 864.011,1023.63 864.011,1023.63C864.011,1023.63 862.289,1332.93 865.749,1401.16C867.395,1433.61 893.293,1432.94 893.293,1432.94L998.757,1433.44C998.757,1433.44 1025.1,1433.74 1025.65,1403.65C1026.89,1335.61 1026.82,1021.67 1026.82,1021.67C1026.82,1021.67 1170.56,1025.13 1204.9,1024.25C1228.27,1023.65 1230.09,991.116 1230.09,991.116L1231.87,893.691C1231.87,893.691 1228.76,872.662 1207.57,872.322C1172.35,871.756 1025.94,870.002 1025.94,870.002C1025.94,870.002 1025.37,519.066 1026.12,442.313C1026.44,409.775 997.246,409.914 997.246,409.914L820.186,409.786C820.186,409.786 1.512,413.195 2.12,1226.05C2.739,2054.17 621.046,2047.59 621.046,2047.59Z" style="stroke:black;stroke-width:1px;"/>
    </g>
</svg>
