<?xml version="1.0" encoding="UTF-8" standalone="no"?>
<!DOCTYPE svg PUBLIC "-//W3C//DTD SVG 1.1//EN" "http://www.w3.org/Graphics/SVG/1.1/DTD/svg11.dtd">
<svg width="100%" height="100%" viewBox="0 0 2048 2048" version="1.1" xmlns="http://www.w3.org/2000/svg" xmlns:xlink="http://www.w3.org/1999/xlink" xml:space="preserve" xmlns:serif="http://www.serif.com/" style="fill-rule:evenodd;clip-rule:evenodd;stroke-linecap:round;stroke-linejoin:round;stroke-miterlimit:1.5;">
    <g id="レイヤー5">
    </g>
    <g transform="matrix(0.821318,0,0,0.751478,-0.366295,408.048)">
        <g id="レイヤー6">
            <path d="M-2.05,207.103L1.102,1442.16C1.102,1442.16 0.257,1637.04 199.559,1638.62C408.537,1640.28 500.495,1638.59 598.205,1637.36C618.005,1637.11 620.529,1612.47 620.529,1612.47L622.454,1459.7C622.454,1459.7 621.851,1434.17 598.748,1434.05C499.082,1433.53 412.475,1435.41 412.475,1435.41C412.475,1435.41 205.973,1433.95 204.691,1235.39C203.37,1030.94 209.77,218.394 209.77,218.394L776.146,1523.92C776.146,1523.92 821.647,1637.64 911.277,1638.08C1021.75,1638.63 1043.2,1640 1076.05,1638.58C1094.88,1637.77 1095.1,1615 1095.1,1615L1092.46,1445.84C1092.46,1445.84 1092.16,1429.77 1076.66,1429.49C935.2,1426.93 909.881,1353.18 854.884,1223.84C680.215,813.079 452.203,273.468 452.203,273.468C452.203,273.468 583.509,141.995 651.35,304.949C747.527,535.966 1184.64,1544.1 1184.64,1544.1C1184.64,1544.1 1229.85,1637.88 1336.04,1638.57C1436.92,1639.24 1461.4,1638.92 1497.54,1638.65C1526.87,1638.44 1527.27,1604.36 1527.27,1604.36L1525.47,1463.6C1525.47,1463.6 1524.57,1441 1498.15,1441C1350.1,1441.01 1269.1,1230.82 1269.1,1230.82L815.579,193.934C815.579,193.934 742.855,4.086 563.614,2.964C410.603,2.007 379.018,112.306 379.018,112.306C379.018,112.306 337.531,1.653 195.13,-1.174C2.122,-5.007 -2.05,207.103 -2.05,207.103Z" style="stroke:black;stroke-width:1.27px;"/>
        </g>
    </g>
</svg>
