<?xml version="1.0" encoding="UTF-8" standalone="no"?>
<!DOCTYPE svg PUBLIC "-//W3C//DTD SVG 1.1//EN" "http://www.w3.org/Graphics/SVG/1.1/DTD/svg11.dtd">
<svg width="100%" height="100%" viewBox="0 0 2048 2048" version="1.1" xmlns="http://www.w3.org/2000/svg" xmlns:xlink="http://www.w3.org/1999/xlink" xml:space="preserve" xmlns:serif="http://www.serif.com/" style="fill-rule:evenodd;clip-rule:evenodd;stroke-linecap:round;stroke-linejoin:round;stroke-miterlimit:1.5;">
    <g id="レイヤー5">
    </g>
    <g transform="matrix(0.748407,0,0,0.87545,-2.5278,407.414)">
        <g id="レイヤー6">
            <path d="M4.025,32.1C5.339,236.547 5.373,709.073 4.197,786.552C3.612,825.129 49.216,820.676 49.216,820.676L177.207,819.317C177.207,819.317 211.85,821.724 213.038,781.75C215.302,705.586 216.984,471.733 216.984,471.733C216.984,471.733 391.503,204.557 695.702,207.874C697.303,207.891 1021.96,209.081 1021.57,407.762C1021.2,600.03 601.29,593.994 601.29,593.994L452.884,592.381C452.884,592.381 420.989,592.627 420.807,623.512C420.337,703.063 418.148,1048.56 418.561,1342.7C418.846,1546.26 276.565,1580.5 276.714,1609.62C276.865,1639.22 315.339,1639.82 315.339,1639.82C315.339,1639.82 403.05,1639.77 422.983,1639.7C453.615,1639.59 608.822,1541.59 608.839,1340.9C608.858,1114.06 609.147,937.29 611.572,828.674C612.366,793.125 644.971,790.275 644.971,790.275C644.971,790.275 1230.65,781.251 1230.73,412.062C1230.82,0.228 686.557,-0.249 684.279,-0.247C382.86,0.076 211.82,208.836 211.82,208.836C211.82,208.836 212.677,130.764 211.474,27.639C211.174,1.921 181.892,1.253 181.892,1.253L38.139,0.115C38.139,0.115 3.83,1.762 4.025,32.1Z" style="stroke:black;stroke-width:1.23px;"/>
        </g>
    </g>
</svg>
