<?xml version="1.0" encoding="UTF-8" standalone="no"?>
<!DOCTYPE svg PUBLIC "-//W3C//DTD SVG 1.1//EN" "http://www.w3.org/Graphics/SVG/1.1/DTD/svg11.dtd">
<svg width="100%" height="100%" viewBox="0 0 2048 2048" version="1.1" xmlns="http://www.w3.org/2000/svg" xmlns:xlink="http://www.w3.org/1999/xlink" xml:space="preserve" xmlns:serif="http://www.serif.com/" style="fill-rule:evenodd;clip-rule:evenodd;stroke-linejoin:round;stroke-miterlimit:2;">
    <g id="レイヤー5">
    </g>
    <g transform="matrix(0.78291,0,0,0.753586,-356.65,512.417)">
        <g id="レイヤー6">
            <path d="M1112.65,486.691C1112.65,486.691 1338.81,133.056 1475.66,-95.85C1501.14,-138.455 1540.48,-138.059 1540.48,-138.059L1726.65,-138.077C1726.65,-138.077 1762.19,-132.966 1726.65,-79.274C1584.93,134.776 1241.58,670.55 1241.58,670.55C1241.58,670.55 1639.74,1304.39 1724.52,1438.27C1761.58,1496.8 1725.16,1494.25 1725.16,1494.25L1549.55,1494.55C1549.55,1494.55 1529.75,1496.23 1502.21,1453.27C1438.36,1353.64 1112.65,856.652 1112.65,856.652C1112.65,856.652 793.729,1339.83 717.132,1455.43C687.876,1499.58 663.268,1495.27 663.268,1495.27L513.093,1496C513.093,1496 459.204,1494.94 506.589,1420.34C570.171,1320.25 983.727,670.55 983.727,670.55C983.727,670.55 564.718,32.255 498.938,-71.046C457.601,-135.962 500.67,-136.026 500.67,-136.026L674.231,-138.875C674.231,-138.875 717.519,-138.442 746.343,-92.859C808.892,6.06 1112.65,486.691 1112.65,486.691Z" style="fill-rule:nonzero;"/>
        </g>
    </g>
</svg>
