<?xml version="1.0" encoding="UTF-8" standalone="no"?>
<!DOCTYPE svg PUBLIC "-//W3C//DTD SVG 1.1//EN" "http://www.w3.org/Graphics/SVG/1.1/DTD/svg11.dtd">
<svg width="100%" height="100%" viewBox="0 0 2048 2048" version="1.1" xmlns="http://www.w3.org/2000/svg" xmlns:xlink="http://www.w3.org/1999/xlink" xml:space="preserve" xmlns:serif="http://www.serif.com/" style="fill-rule:evenodd;clip-rule:evenodd;stroke-linecap:round;stroke-linejoin:round;stroke-miterlimit:1.5;">
    <g transform="matrix(-0.837732,0,0,0.872627,1024.33,208.925)">
        <g id="レイヤー6">
            <path d="M6.065,1605.29C6.065,1605.29 6.375,1637.9 40.658,1638.18C66.574,1638.39 145.166,1640.04 173.85,1639.42C202.683,1638.8 203.716,1605.25 203.716,1605.25C203.716,1605.25 206.826,763.543 202.581,356.831C201.491,252.425 263.233,208.646 371.866,207.872C579.635,206.394 721.546,204.024 926.16,203.642C1022.19,203.463 1023.96,409.198 1023.96,409.198C1023.96,409.198 1024.44,441.211 1050.85,441.11C1078.91,441.003 1171.19,440.718 1200.69,441.182C1227.16,441.598 1227.41,410.912 1227.41,410.912C1227.41,410.912 1185.64,-7.373 979.699,-7.339C794.47,-7.309 451.623,-7.805 247.462,-6.462C150.84,-5.827 -1.053,136.768 -0.78,233.392C0.354,634.811 6.065,1605.29 6.065,1605.29Z" style="stroke:black;stroke-width:1.17px;"/>
        </g>
    </g>
</svg>
