<?xml version="1.0" encoding="UTF-8" standalone="no"?>
<!DOCTYPE svg PUBLIC "-//W3C//DTD SVG 1.1//EN" "http://www.w3.org/Graphics/SVG/1.1/DTD/svg11.dtd">
<svg width="100%" height="100%" viewBox="0 0 2048 2048" version="1.1" xmlns="http://www.w3.org/2000/svg" xmlns:xlink="http://www.w3.org/1999/xlink" xml:space="preserve" xmlns:serif="http://www.serif.com/" style="fill-rule:evenodd;clip-rule:evenodd;stroke-linejoin:round;stroke-miterlimit:2;">
    <g transform="matrix(0.631934,0,0,0.733514,-335.514,526.649)">
        <g id="レイヤー6">
            <path d="M1835.76,729.968C1835.76,889.911 1808.85,1029.49 1755.04,1148.7C1701.23,1267.91 1624.99,1358.9 1526.34,1421.68C1427.68,1484.46 1312.58,1515.86 1181.04,1515.86C1052.49,1515.86 938.51,1484.28 839.106,1421.12C739.703,1357.97 662.534,1267.91 607.6,1150.94C552.667,1033.97 524.453,898.506 522.958,744.542L522.958,626.828C522.958,469.874 550.238,331.233 604.798,210.902C659.358,90.571 736.526,-1.545 836.303,-65.448C936.081,-129.35 1050.25,-161.301 1178.8,-161.301C1309.59,-161.301 1424.88,-129.724 1524.65,-66.569C1624.43,-3.414 1701.23,88.142 1755.04,208.099C1808.85,328.056 1835.76,467.632 1835.76,626.828L1835.76,729.968ZM1582.01,622.039C1582.01,428.463 1556.41,320.415 1478.68,216.901C1400.96,113.387 1315.9,71.444 1176.13,71.444C1040.11,71.444 960.4,106.1 882.297,209.614C804.194,313.128 781.453,431.661 779.211,615.521L780.987,724.512C780.987,912.109 803.873,1041.17 882.723,1148.42C961.574,1255.67 1042.25,1291.94 1180.52,1291.94C1319.53,1291.94 1406.86,1245.69 1483.1,1144.42C1559.33,1043.15 1581.7,930.829 1583.95,741.738L1582.01,622.039Z" style="fill-rule:nonzero;"/>
        </g>
    </g>
</svg>
