<?xml version="1.0" encoding="UTF-8" standalone="no"?>
<!DOCTYPE svg PUBLIC "-//W3C//DTD SVG 1.1//EN" "http://www.w3.org/Graphics/SVG/1.1/DTD/svg11.dtd">
<svg width="100%" height="100%" viewBox="0 0 2048 2048" version="1.1" xmlns="http://www.w3.org/2000/svg" xmlns:xlink="http://www.w3.org/1999/xlink" xml:space="preserve" xmlns:serif="http://www.serif.com/" style="fill-rule:evenodd;clip-rule:evenodd;stroke-linecap:round;stroke-linejoin:round;stroke-miterlimit:1.5;">
    <g id="レイヤー5">
    </g>
    <g transform="matrix(1,0,0,1,-107.63,0.65077)">
        <g id="レイヤー6">
            <path d="M723.895,1487.69C723.895,1487.69 727.713,1461.98 686.102,1462.26C559.828,1463.13 517.463,1464.03 314.2,1463.13C285.297,1463 281.577,1433.05 281.577,1433.05C281.577,1433.05 276.474,205.429 277.766,33.619C278.001,2.281 246.168,-0.043 246.168,-0.043L139.574,-0.474C139.574,-0.474 107.137,5.285 107.408,36.709C108.841,202.898 108.059,1601.99 108.059,1601.99C108.059,1601.99 108.38,1638.5 144.687,1638.24C312.477,1637.04 549.378,1640.34 687.078,1639.78C722.704,1639.63 725.732,1606.65 725.732,1606.65L723.895,1487.69Z" style="stroke:black;stroke-width:1px;"/>
        </g>
    </g>
</svg>
