<?xml version="1.0" encoding="UTF-8" standalone="no"?>
<!DOCTYPE svg PUBLIC "-//W3C//DTD SVG 1.1//EN" "http://www.w3.org/Graphics/SVG/1.1/DTD/svg11.dtd">
<svg width="100%" height="100%" viewBox="0 0 2048 2048" version="1.1" xmlns="http://www.w3.org/2000/svg" xmlns:xlink="http://www.w3.org/1999/xlink" xml:space="preserve" xmlns:serif="http://www.serif.com/" style="fill-rule:evenodd;clip-rule:evenodd;stroke-linecap:round;stroke-linejoin:round;stroke-miterlimit:1.5;">
    <g id="レイヤー5">
    </g>
    <g transform="matrix(0.8628,0,0,1,-13.531,407.62)">
        <g id="レイヤー6">
            <path d="M1441.56,309.393C1441.61,306.876 1441.01,-0.137 1155.43,1.375C855.534,2.962 844.687,312.873 844.687,312.873C844.687,312.873 845.492,335.373 873.927,335.672C899.088,335.937 966.498,337.254 989.298,335.965C1018.38,334.321 1020.55,313.425 1020.55,313.425C1020.55,313.425 1035.12,159.763 1153.6,158.26C1288.5,156.549 1272.92,308.079 1272.91,311.849C1271.47,617.1 345.883,1135.87 345.883,1135.87C345.883,1135.87 437.36,411.635 439.331,206.231C439.877,149.25 442.192,40.766 442.192,40.766C442.192,40.766 442.569,0.805 401.831,1.132C376.191,1.339 322.691,2.411 295.954,2.341C253.804,2.231 252.726,43.713 252.726,43.713C252.726,43.713 253.019,105.519 254.014,207.543C256.007,411.87 218.669,754.241 182.546,1022.87C155.244,1225.9 86.861,1435.59 35.689,1591.09C20.118,1638.41 61.286,1640.38 61.286,1640.38L208.807,1640.38C208.807,1640.38 255.216,1640.93 254.736,1579.43C253.627,1437.54 338.339,1372.52 400.175,1312.32C548.509,1167.91 1433.2,769.786 1441.56,309.393Z" style="stroke:black;stroke-width:1.07px;"/>
        </g>
    </g>
</svg>
