<?xml version="1.0" encoding="UTF-8" standalone="no"?>
<!DOCTYPE svg PUBLIC "-//W3C//DTD SVG 1.1//EN" "http://www.w3.org/Graphics/SVG/1.1/DTD/svg11.dtd">
<svg width="100%" height="100%" viewBox="0 0 2048 2048" version="1.1" xmlns="http://www.w3.org/2000/svg" xmlns:xlink="http://www.w3.org/1999/xlink" xml:space="preserve" xmlns:serif="http://www.serif.com/" style="fill-rule:evenodd;clip-rule:evenodd;stroke-linecap:round;stroke-linejoin:round;stroke-miterlimit:1.5;">
    <g id="レイヤー6">
        <path d="M581.889,588.602L581.832,232.257C581.832,232.257 581.501,203.983 557.77,203.446C533.505,202.898 464.519,203.547 438.419,204.076C410.044,204.651 410.842,236.838 410.842,236.838L407.874,615.218C407.874,615.218 -0.946,721.623 -2.87,1159.56C-4.969,1637.22 520.861,1639.95 521.241,1639.94C713.782,1638.65 766.385,1619.17 818.594,1591.22C862.776,1567.56 863.315,1543.77 863.315,1543.77L862.923,1473.9C862.923,1473.9 864.08,1418.08 819.869,1431.97C766.19,1448.83 767.007,1462.78 525.477,1463.98C524.462,1463.99 185.089,1458.64 179.955,1123.64C176.372,889.827 408.963,790.446 408.963,790.446L408.936,1183.53C408.936,1183.53 409.26,1229.03 448.415,1230.17C499.615,1231.66 714.077,1229.85 714.077,1229.85C714.077,1229.85 1030.78,1229.63 1026.81,870.139C1022.73,500.393 581.889,588.602 581.889,588.602ZM584.437,749.009C584.437,749.009 867.342,678.539 865.61,873.983C864.064,1048.39 722.093,1053.98 722.093,1053.98C722.093,1053.98 639.201,1055.53 614.537,1054.55C584.047,1053.33 584.682,1021.73 584.682,1021.73L584.437,749.009Z" style="stroke:black;stroke-width:1px;"/>
    </g>
</svg>
