<?xml version="1.0" encoding="UTF-8" standalone="no"?>
<!DOCTYPE svg PUBLIC "-//W3C//DTD SVG 1.1//EN" "http://www.w3.org/Graphics/SVG/1.1/DTD/svg11.dtd">
<svg width="100%" height="100%" viewBox="0 0 2048 2048" version="1.1" xmlns="http://www.w3.org/2000/svg" xmlns:xlink="http://www.w3.org/1999/xlink" xml:space="preserve" xmlns:serif="http://www.serif.com/" style="fill-rule:evenodd;clip-rule:evenodd;stroke-linecap:round;stroke-linejoin:round;stroke-miterlimit:1.5;">
    <g transform="matrix(0.796548,0,0,0.751235,-0.294398,408.386)">
        <g id="レイヤー6">
            <path d="M0.37,41.926L0.37,1590.56C0.37,1590.56 1.902,1638.63 44.102,1639.13C73.887,1639.49 180.178,1638.74 180.178,1638.74C180.178,1638.74 209.986,1639.22 257.685,1611.83C489.014,1478.97 1437.91,956.236 1435.58,415.842C1435.56,412.278 1433.86,2.808 1024.58,2.031C623.147,1.269 610.346,409.338 610.346,409.338C610.346,409.338 616.51,445.613 646.901,446.43C673.996,447.158 745.618,448.22 772.576,447.43C811.176,446.299 813.348,410.019 813.348,410.019C813.348,410.019 818.783,202.61 1024.36,204.628C1229.02,206.637 1229.58,408.676 1229.59,412.657C1230.28,865.809 203.036,1437.81 203.036,1437.81L203.855,43.779C203.855,43.779 202.28,1.761 164.957,1.406C137.539,1.145 69.284,1.196 40.251,1.587C0.871,2.118 0.37,41.926 0.37,41.926Z" style="stroke:black;stroke-width:1.29px;"/>
        </g>
    </g>
</svg>
