<?xml version="1.0" encoding="UTF-8" standalone="no"?>
<!DOCTYPE svg PUBLIC "-//W3C//DTD SVG 1.1//EN" "http://www.w3.org/Graphics/SVG/1.1/DTD/svg11.dtd">
<svg width="100%" height="100%" viewBox="0 0 2048 2048" version="1.1" xmlns="http://www.w3.org/2000/svg" xmlns:xlink="http://www.w3.org/1999/xlink" xml:space="preserve" xmlns:serif="http://www.serif.com/" style="fill-rule:evenodd;clip-rule:evenodd;stroke-linecap:round;stroke-linejoin:round;stroke-miterlimit:1.5;">
    <g transform="matrix(0.743276,0,0,0.747946,0.734356,412.542)">
        <g id="レイヤー6">
            <path d="M1222.42,409.092C1222.42,409.092 1234.68,1.598 612.969,-1.962C4.1,-5.448 2.86,402.005 2.86,402.005L-0.988,1597.3C-0.988,1597.3 -1.146,1640.48 43.703,1639.71C73.133,1639.21 141.021,1640.02 170.716,1639.18C215.67,1637.92 216.45,1594.01 216.45,1594.01L219.677,1148.69C219.677,1148.69 207.734,894.153 619.118,881.971C1024.52,869.967 1023.52,1150.71 1023.51,1152.68C1022.12,1420.3 825.486,1426.83 825.486,1426.83C825.486,1426.83 794.947,1428.91 794.82,1454.02C794.669,1483.92 795.284,1578.82 795.203,1608.09C795.117,1639.5 825.02,1638.85 825.02,1638.85C825.02,1638.85 1225.78,1639.61 1224.51,1149.08C1224.51,1147.8 1236.52,686.128 617.942,686.207C306.63,686.246 214.252,856.053 214.252,856.053L208.193,404.3C208.193,404.3 204.465,204.493 613.855,203.359C1026.23,202.216 1027.29,408.026 1027.29,408.026C1027.29,408.026 1027.49,434.204 1055.35,434.725C1100.45,435.569 1166.71,435.564 1192.8,434.564C1223.28,433.395 1222.42,409.092 1222.42,409.092Z" style="stroke:black;stroke-width:1.34px;"/>
        </g>
    </g>
</svg>
