<?xml version="1.0" encoding="UTF-8" standalone="no"?>
<!DOCTYPE svg PUBLIC "-//W3C//DTD SVG 1.1//EN" "http://www.w3.org/Graphics/SVG/1.1/DTD/svg11.dtd">
<svg width="100%" height="100%" viewBox="0 0 2048 2048" version="1.1" xmlns="http://www.w3.org/2000/svg" xmlns:xlink="http://www.w3.org/1999/xlink" xml:space="preserve" xmlns:serif="http://www.serif.com/" style="fill-rule:evenodd;clip-rule:evenodd;stroke-linecap:round;stroke-linejoin:round;stroke-miterlimit:1.5;">
    <g id="レイヤー5">
    </g>
    <g transform="matrix(0.776562,0,0,0.80714,-0.259651,317.46)">
        <g id="レイヤー6">
            <path d="M647.442,115.172C607.608,115.343 604.651,157.874 604.651,157.874L604.827,277.454C604.827,277.454 605.87,317.933 645.479,318.166C791.981,319.027 1585.95,321.042 1585.95,321.042L1248.19,657.085C1248.19,657.085 1236.35,518.479 1050.38,520.938C936.498,522.444 660.823,658.779 410.97,876.753C218.735,1044.46 0.539,1251.53 0.622,1442.06C0.663,1536.84 100.625,1631.77 200.793,1635.7C314.213,1640.15 479.01,1509.61 615.848,1397.55C820.094,1230.28 1050.93,1030.66 1050.93,1030.66C1050.93,1030.66 1058.33,1258.54 1056.76,1425.48C1054.78,1635.91 1267.57,1638.12 1267.57,1638.12C1267.57,1638.12 1448.8,1640.57 1527.8,1637.52C1581.01,1635.46 1583.49,1586.71 1583.49,1586.71L1585.95,1482.97C1585.95,1482.97 1585.55,1431.09 1533.68,1430.89C1447.02,1430.56 1318.97,1429.2 1318.97,1429.2C1318.97,1429.2 1269.81,1429.92 1269.9,1380.24C1270.34,1128.77 1272.32,875.363 1272.32,875.363C1272.32,875.363 1780.81,368.311 1832.84,317.001C1845.63,304.384 1847.49,267.021 1847.49,267.021C1847.49,267.021 1846.71,179.62 1847.06,152.901C1847.57,114.68 1808.89,112.556 1808.89,112.556C1808.89,112.556 792.558,114.549 647.442,115.172ZM1009.04,817.821C1009.04,817.821 779.203,1012.73 606.528,1158.54C503.173,1245.81 395.01,1336.72 313.033,1337.25C256.424,1337.61 363.482,1180.79 524.055,1019.89C656.11,887.56 854.326,713.62 962.982,711.765C1024.16,710.72 1009.04,817.821 1009.04,817.821Z" style="stroke:black;stroke-width:1.26px;"/>
        </g>
    </g>
</svg>
